{
	"asset":{
		"generator":"Khronos glTF Blender I/O v3.6.27",
		"version":"2.0"
	},
	"extensionsUsed":[
		"KHR_materials_specular",
		"KHR_materials_ior"
	],
	"scene":0,
	"scenes":[
		{
			"name":"Scene",
			"nodes":[
				0,
				1,
				2,
				3,
				4,
				5,
				6,
				7,
				8,
				9
			]
		}
	],
	"nodes":[
		{
			"mesh":0,
			"name":"\u7acb\u65b9\u4f53",
			"translation":[
				0,
				0,
				0.0581950880587101
			]
		},
		{
			"mesh":1,
			"name":"\u7acb\u65b9\u4f53.001"
		},
		{
			"mesh":2,
			"name":"\u7acb\u65b9\u4f53.002",
			"rotation":[
				-0.2987620532512665,
				0,
				0,
				0.9543276429176331
			],
			"scale":[
				0.5624374151229858,
				1,
				1
			],
			"translation":[
				0.7494522333145142,
				0.19958171248435974,
				0.33751893043518066
			]
		},
		{
			"mesh":3,
			"name":"\u7acb\u65b9\u4f53.003",
			"rotation":[
				-0.9598308205604553,
				0,
				0,
				0.28057941794395447
			],
			"scale":[
				0.5624374151229858,
				1,
				1
			],
			"translation":[
				0.6314230561256409,
				0.19958171248435974,
				0.23751896619796753
			]
		},
		{
			"mesh":4,
			"name":"\u7acb\u65b9\u4f53.004",
			"translation":[
				-0.19999998807907104,
				0,
				0.285861611366272
			]
		},
		{
			"mesh":5,
			"name":"\u67f1\u4f53",
			"rotation":[
				0.5,
				0.5,
				-0.5,
				0.5
			],
			"scale":[
				-0.06352518498897552,
				-0.06352518498897552,
				-0.06352518498897552
			],
			"translation":[
				0.95869380235672,
				0.5998599529266357,
				0.8629701137542725
			]
		},
		{
			"mesh":6,
			"name":"\u67f1\u4f53.001",
			"rotation":[
				0.5,
				0.5,
				-0.5,
				0.5
			],
			"scale":[
				-0.06352518498897552,
				-0.06352518498897552,
				-0.06352518498897552
			],
			"translation":[
				0.95869380235672,
				0.5998599529266357,
				-0.3230464458465576
			]
		},
		{
			"mesh":7,
			"name":"\u67f1\u4f53.002",
			"rotation":[
				-0.12094330787658691,
				0,
				0,
				0.9926594495773315
			],
			"scale":[
				0.34755590558052063,
				0.34755590558052063,
				0.34755590558052063
			],
			"translation":[
				0.8512113690376282,
				0.7062755823135376,
				-0.5831671357154846
			]
		},
		{
			"mesh":8,
			"name":"\u7acb\u65b9\u4f53.005",
			"rotation":[
				-0.11733414977788925,
				-0.006725934334099293,
				0.0012814548099413514,
				0.9930689334869385
			],
			"scale":[
				1.0000648498535156,
				1.0206427574157715,
				1.3580851554870605
			],
			"translation":[
				-0.012747284956276417,
				1.9025684595108032,
				-0.8736998438835144
			]
		},
		{
			"mesh":9,
			"name":"\u7acb\u65b9\u4f53.006",
			"rotation":[
				0,
				0.28772202134132385,
				0,
				0.9577140808105469
			],
			"scale":[
				-3.700477361679077,
				-3.235475540161133,
				-2.971501111984253
			],
			"translation":[
				0,
				2.9297633171081543,
				0
			]
		}
	],
	"materials":[
		{
			"doubleSided":true,
			"name":"\u6750\u8d28",
			"pbrMetallicRoughness":{
				"baseColorFactor":[
					0.22322766482830048,
					0.4341535270214081,
					0.04970668628811836,
					1
				],
				"metallicFactor":0,
				"roughnessFactor":0.5
			}
		},
		{
			"doubleSided":true,
			"name":"\u6750\u8d28.003",
			"pbrMetallicRoughness":{
				"baseColorFactor":[
					0.5906187295913696,
					0.34670373797416687,
					0.06301011145114899,
					1
				],
				"metallicFactor":0,
				"roughnessFactor":0.5
			}
		},
		{
			"doubleSided":true,
			"name":"\u6750\u8d28.004",
			"pbrMetallicRoughness":{
				"baseColorFactor":[
					0.5906187295913696,
					0.34670373797416687,
					0.06301011145114899,
					1
				],
				"metallicFactor":0,
				"roughnessFactor":0.5
			}
		},
		{
			"doubleSided":true,
			"name":"\u6750\u8d28.005",
			"pbrMetallicRoughness":{
				"baseColorFactor":[
					0.5906187295913696,
					0.34670373797416687,
					0.06301011145114899,
					1
				],
				"metallicFactor":0,
				"roughnessFactor":0.5
			}
		},
		{
			"doubleSided":true,
			"name":"\u6750\u8d28.006",
			"pbrMetallicRoughness":{
				"baseColorFactor":[
					0.5906187295913696,
					0.34670373797416687,
					0.06301011145114899,
					1
				],
				"metallicFactor":0,
				"roughnessFactor":0.5
			}
		},
		{
			"doubleSided":true,
			"name":"\u6750\u8d28.007",
			"pbrMetallicRoughness":{
				"baseColorFactor":[
					0.6514052152633667,
					0.7230547070503235,
					0.2086370289325714,
					1
				],
				"metallicFactor":0,
				"roughnessFactor":0.5
			}
		},
		{
			"doubleSided":true,
			"name":"\u6750\u8d28.008",
			"pbrMetallicRoughness":{
				"baseColorFactor":[
					0.6514052152633667,
					0.7230547070503235,
					0.2086370289325714,
					1
				],
				"metallicFactor":0,
				"roughnessFactor":0.5
			}
		},
		{
			"doubleSided":true,
			"name":"\u6750\u8d28.002",
			"pbrMetallicRoughness":{
				"baseColorFactor":[
					0.5906187295913696,
					0.34670373797416687,
					0.06301011145114899,
					1
				],
				"metallicFactor":0,
				"roughnessFactor":0.5
			}
		},
		{
			"doubleSided":true,
			"name":"\u6750\u8d28.001",
			"pbrMetallicRoughness":{
				"baseColorFactor":[
					0.22322766482830048,
					0.4341535270214081,
					0.04970668628811836,
					1
				],
				"metallicFactor":0,
				"roughnessFactor":0.5
			}
		},
		{
			"doubleSided":true,
			"extensions":{
				"KHR_materials_specular":{
					"specularColorFactor":[
						0.1612523265453386,
						0.1612523265453386,
						0.1612523265453386
					]
				},
				"KHR_materials_ior":{
					"ior":1.4500000476837158
				}
			},
			"name":"\u6750\u8d28.009",
			"pbrMetallicRoughness":{
				"baseColorFactor":[
					0.0480387844145298,
					0.12802471220493317,
					0.22566819190979004,
					1
				],
				"metallicFactor":0,
				"roughnessFactor":0.4000000059604645
			}
		}
	],
	"meshes":[
		{
			"name":"\u7acb\u65b9\u4f53.001",
			"primitives":[
				{
					"attributes":{
						"POSITION":0,
						"NORMAL":1,
						"TEXCOORD_0":2
					},
					"indices":3,
					"material":0
				}
			]
		},
		{
			"name":"\u7acb\u65b9\u4f53.005",
			"primitives":[
				{
					"attributes":{
						"POSITION":4,
						"NORMAL":5,
						"TEXCOORD_0":6
					},
					"indices":7,
					"material":1
				}
			]
		},
		{
			"name":"\u7acb\u65b9\u4f53.007",
			"primitives":[
				{
					"attributes":{
						"POSITION":8,
						"NORMAL":9,
						"TEXCOORD_0":10
					},
					"indices":7,
					"material":2
				}
			]
		},
		{
			"name":"\u7acb\u65b9\u4f53.009",
			"primitives":[
				{
					"attributes":{
						"POSITION":11,
						"NORMAL":12,
						"TEXCOORD_0":13
					},
					"indices":7,
					"material":3
				}
			]
		},
		{
			"name":"\u7acb\u65b9\u4f53.010",
			"primitives":[
				{
					"attributes":{
						"POSITION":14,
						"NORMAL":15,
						"TEXCOORD_0":16
					},
					"indices":7,
					"material":4
				}
			]
		},
		{
			"name":"\u67f1\u4f53.001",
			"primitives":[
				{
					"attributes":{
						"POSITION":17,
						"NORMAL":18,
						"TEXCOORD_0":19
					},
					"indices":20,
					"material":5
				}
			]
		},
		{
			"name":"\u67f1\u4f53.005",
			"primitives":[
				{
					"attributes":{
						"POSITION":21,
						"NORMAL":22,
						"TEXCOORD_0":23
					},
					"indices":20,
					"material":6
				}
			]
		},
		{
			"name":"\u67f1\u4f53.006",
			"primitives":[
				{
					"attributes":{
						"POSITION":24,
						"NORMAL":25,
						"TEXCOORD_0":26
					},
					"indices":27,
					"material":7
				}
			]
		},
		{
			"name":"\u7acb\u65b9\u4f53.011",
			"primitives":[
				{
					"attributes":{
						"POSITION":28,
						"NORMAL":29,
						"TEXCOORD_0":30
					},
					"indices":31,
					"material":8
				}
			]
		},
		{
			"name":"\u7acb\u65b9\u4f53.012",
			"primitives":[
				{
					"attributes":{
						"POSITION":32,
						"NORMAL":33,
						"TEXCOORD_0":34
					},
					"indices":35,
					"material":9
				}
			]
		}
	],
	"accessors":[
		{
			"bufferView":0,
			"componentType":5126,
			"count":445,
			"max":[
				1,
				0.9364752173423767,
				1
			],
			"min":[
				-1,
				0.7000000476837158,
				-0.5078558921813965
			],
			"type":"VEC3"
		},
		{
			"bufferView":1,
			"componentType":5126,
			"count":445,
			"type":"VEC3"
		},
		{
			"bufferView":2,
			"componentType":5126,
			"count":445,
			"type":"VEC2"
		},
		{
			"bufferView":3,
			"componentType":5123,
			"count":2292,
			"type":"SCALAR"
		},
		{
			"bufferView":4,
			"componentType":5126,
			"count":963,
			"max":[
				1,
				0.699999988079071,
				1
			],
			"min":[
				0.8000000715255737,
				0.5,
				-0.7137540578842163
			],
			"type":"VEC3"
		},
		{
			"bufferView":5,
			"componentType":5126,
			"count":963,
			"type":"VEC3"
		},
		{
			"bufferView":6,
			"componentType":5126,
			"count":963,
			"type":"VEC2"
		},
		{
			"bufferView":7,
			"componentType":5123,
			"count":3876,
			"type":"SCALAR"
		},
		{
			"bufferView":8,
			"componentType":5126,
			"count":963,
			"max":[
				0.10000002384185791,
				0.1000000461935997,
				0.7999998331069946
			],
			"min":[
				-0.09999990463256836,
				-0.09999994188547134,
				-0.8000001311302185
			],
			"type":"VEC3"
		},
		{
			"bufferView":9,
			"componentType":5126,
			"count":963,
			"type":"VEC3"
		},
		{
			"bufferView":10,
			"componentType":5126,
			"count":963,
			"type":"VEC2"
		},
		{
			"bufferView":11,
			"componentType":5126,
			"count":963,
			"max":[
				0.10000002384185791,
				0.1000000461935997,
				0.7999998331069946
			],
			"min":[
				-0.09999990463256836,
				-0.09999994188547134,
				-0.8000001311302185
			],
			"type":"VEC3"
		},
		{
			"bufferView":12,
			"componentType":5126,
			"count":963,
			"type":"VEC3"
		},
		{
			"bufferView":13,
			"componentType":5126,
			"count":963,
			"type":"VEC2"
		},
		{
			"bufferView":14,
			"componentType":5126,
			"count":963,
			"max":[
				1,
				0.699999988079071,
				0.19999998807907104
			],
			"min":[
				0.9000000953674316,
				0.5,
				-0.9999999403953552
			],
			"type":"VEC3"
		},
		{
			"bufferView":15,
			"componentType":5126,
			"count":963,
			"type":"VEC3"
		},
		{
			"bufferView":16,
			"componentType":5126,
			"count":963,
			"type":"VEC2"
		},
		{
			"bufferView":17,
			"componentType":5126,
			"count":546,
			"max":[
				1,
				1,
				1
			],
			"min":[
				-1,
				-1,
				-1
			],
			"type":"VEC3"
		},
		{
			"bufferView":18,
			"componentType":5126,
			"count":546,
			"type":"VEC3"
		},
		{
			"bufferView":19,
			"componentType":5126,
			"count":546,
			"type":"VEC2"
		},
		{
			"bufferView":20,
			"componentType":5123,
			"count":1908,
			"type":"SCALAR"
		},
		{
			"bufferView":21,
			"componentType":5126,
			"count":546,
			"max":[
				1,
				1,
				1
			],
			"min":[
				-1,
				-1,
				-1
			],
			"type":"VEC3"
		},
		{
			"bufferView":22,
			"componentType":5126,
			"count":546,
			"type":"VEC3"
		},
		{
			"bufferView":23,
			"componentType":5126,
			"count":546,
			"type":"VEC2"
		},
		{
			"bufferView":24,
			"componentType":5126,
			"count":130,
			"max":[
				0.23502814769744873,
				5.154489517211914,
				0.23502811789512634
			],
			"min":[
				-0.23502814769744873,
				-0.3381439447402954,
				-0.23502826690673828
			],
			"type":"VEC3"
		},
		{
			"bufferView":25,
			"componentType":5126,
			"count":130,
			"type":"VEC3"
		},
		{
			"bufferView":26,
			"componentType":5126,
			"count":130,
			"type":"VEC2"
		},
		{
			"bufferView":27,
			"componentType":5123,
			"count":372,
			"type":"SCALAR"
		},
		{
			"bufferView":28,
			"componentType":5126,
			"count":66,
			"max":[
				0.9923879504203796,
				0.4663381576538086,
				0.0804782509803772
			],
			"min":[
				-1,
				-0.46633797883987427,
				-0.08047837018966675
			],
			"type":"VEC3"
		},
		{
			"bufferView":29,
			"componentType":5126,
			"count":66,
			"type":"VEC3"
		},
		{
			"bufferView":30,
			"componentType":5126,
			"count":66,
			"type":"VEC2"
		},
		{
			"bufferView":31,
			"componentType":5123,
			"count":192,
			"type":"SCALAR"
		},
		{
			"bufferView":32,
			"componentType":5126,
			"count":47,
			"max":[
				2.4334330558776855,
				1,
				1.647877812385559
			],
			"min":[
				-1.3761308193206787,
				-1,
				-2.526905059814453
			],
			"type":"VEC3"
		},
		{
			"bufferView":33,
			"componentType":5126,
			"count":47,
			"type":"VEC3"
		},
		{
			"bufferView":34,
			"componentType":5126,
			"count":47,
			"type":"VEC2"
		},
		{
			"bufferView":35,
			"componentType":5123,
			"count":132,
			"type":"SCALAR"
		}
	],
	"bufferViews":[
		{
			"buffer":0,
			"byteLength":5340,
			"byteOffset":0,
			"target":34962
		},
		{
			"buffer":0,
			"byteLength":5340,
			"byteOffset":5340,
			"target":34962
		},
		{
			"buffer":0,
			"byteLength":3560,
			"byteOffset":10680,
			"target":34962
		},
		{
			"buffer":0,
			"byteLength":4584,
			"byteOffset":14240,
			"target":34963
		},
		{
			"buffer":0,
			"byteLength":11556,
			"byteOffset":18824,
			"target":34962
		},
		{
			"buffer":0,
			"byteLength":11556,
			"byteOffset":30380,
			"target":34962
		},
		{
			"buffer":0,
			"byteLength":7704,
			"byteOffset":41936,
			"target":34962
		},
		{
			"buffer":0,
			"byteLength":7752,
			"byteOffset":49640,
			"target":34963
		},
		{
			"buffer":0,
			"byteLength":11556,
			"byteOffset":57392,
			"target":34962
		},
		{
			"buffer":0,
			"byteLength":11556,
			"byteOffset":68948,
			"target":34962
		},
		{
			"buffer":0,
			"byteLength":7704,
			"byteOffset":80504,
			"target":34962
		},
		{
			"buffer":0,
			"byteLength":11556,
			"byteOffset":88208,
			"target":34962
		},
		{
			"buffer":0,
			"byteLength":11556,
			"byteOffset":99764,
			"target":34962
		},
		{
			"buffer":0,
			"byteLength":7704,
			"byteOffset":111320,
			"target":34962
		},
		{
			"buffer":0,
			"byteLength":11556,
			"byteOffset":119024,
			"target":34962
		},
		{
			"buffer":0,
			"byteLength":11556,
			"byteOffset":130580,
			"target":34962
		},
		{
			"buffer":0,
			"byteLength":7704,
			"byteOffset":142136,
			"target":34962
		},
		{
			"buffer":0,
			"byteLength":6552,
			"byteOffset":149840,
			"target":34962
		},
		{
			"buffer":0,
			"byteLength":6552,
			"byteOffset":156392,
			"target":34962
		},
		{
			"buffer":0,
			"byteLength":4368,
			"byteOffset":162944,
			"target":34962
		},
		{
			"buffer":0,
			"byteLength":3816,
			"byteOffset":167312,
			"target":34963
		},
		{
			"buffer":0,
			"byteLength":6552,
			"byteOffset":171128,
			"target":34962
		},
		{
			"buffer":0,
			"byteLength":6552,
			"byteOffset":177680,
			"target":34962
		},
		{
			"buffer":0,
			"byteLength":4368,
			"byteOffset":184232,
			"target":34962
		},
		{
			"buffer":0,
			"byteLength":1560,
			"byteOffset":188600,
			"target":34962
		},
		{
			"buffer":0,
			"byteLength":1560,
			"byteOffset":190160,
			"target":34962
		},
		{
			"buffer":0,
			"byteLength":1040,
			"byteOffset":191720,
			"target":34962
		},
		{
			"buffer":0,
			"byteLength":744,
			"byteOffset":192760,
			"target":34963
		},
		{
			"buffer":0,
			"byteLength":792,
			"byteOffset":193504,
			"target":34962
		},
		{
			"buffer":0,
			"byteLength":792,
			"byteOffset":194296,
			"target":34962
		},
		{
			"buffer":0,
			"byteLength":528,
			"byteOffset":195088,
			"target":34962
		},
		{
			"buffer":0,
			"byteLength":384,
			"byteOffset":195616,
			"target":34963
		},
		{
			"buffer":0,
			"byteLength":564,
			"byteOffset":196000,
			"target":34962
		},
		{
			"buffer":0,
			"byteLength":564,
			"byteOffset":196564,
			"target":34962
		},
		{
			"buffer":0,
			"byteLength":376,
			"byteOffset":197128,
			"target":34962
		},
		{
			"buffer":0,
			"byteLength":264,
			"byteOffset":197504,
			"target":34963
		}
	],
	"buffers":[
		{
			"byteLength":197768,
			"uri":"%E6%97%A0%E6%A0%87%E9%A2%98.bin"
		}
	]
}
