<?xml version="1.0" standalone="no"?>
<!DOCTYPE svg PUBLIC "-//W3C//DTD SVG 20010904//EN"
 "http://www.w3.org/TR/2001/REC-SVG-20010904/DTD/svg10.dtd">
<svg version="1.0" xmlns="http://www.w3.org/2000/svg"
 width="4603.000000pt" height="4605.000000pt" viewBox="0 0 4603.000000 4605.000000"
 preserveAspectRatio="xMidYMid meet">

<g transform="translate(0.000000,4605.000000) scale(0.100000,-0.100000)"
fill="#000000" stroke="none">
<path d="M0 46035 c0 -13 2564 -15 23015 -15 20451 0 23015 2 23015 15 0 13
-2564 15 -23015 15 -20451 0 -23015 -2 -23015 -15z"/>
<path d="M39137 37365 c-299 -36 -576 -119 -839 -251 -718 -358 -1224 -1039
-1357 -1826 -117 -689 53 -1386 474 -1943 371 -491 910 -829 1515 -949 175
-35 293 -46 487 -46 399 0 751 80 1098 250 576 281 1014 755 1248 1350 158
403 207 855 141 1305 -75 513 -328 1009 -710 1390 -476 475 -1118 738 -1789
734 -88 -1 -209 -7 -268 -14z m592 -300 c731 -105 1356 -559 1685 -1223 152
-306 226 -627 226 -977 -1 -306 -46 -545 -157 -829 -87 -224 -244 -475 -411
-658 -298 -327 -675 -557 -1087 -664 -192 -49 -300 -65 -500 -71 -1102 -34
-2052 737 -2257 1832 -19 105 -22 154 -22 385 -1 249 1 274 27 410 15 80 50
213 78 295 286 854 1047 1445 1954 1519 90 7 358 -4 464 -19z"/>
<path d="M38385 36388 c-3 -7 -4 -674 -3 -1483 l3 -1470 198 -3 197 -2 0 661
0 661 328 -5 c369 -5 389 -9 514 -89 154 -100 272 -259 756 -1023 l127 -200
244 -5 c133 -3 244 -3 246 0 2 3 -22 45 -53 92 -31 47 -124 193 -207 323 -306
483 -384 591 -521 729 -80 80 -156 136 -232 170 -23 10 -42 23 -42 27 0 4 26
13 58 19 358 73 570 214 686 455 50 103 67 175 73 310 6 151 -16 265 -80 398
-68 143 -143 232 -262 310 -102 67 -271 109 -510 127 -214 15 -1514 13 -1520
-2z m1531 -333 c152 -26 236 -67 320 -156 156 -167 163 -412 17 -612 -66 -90
-189 -154 -351 -183 -85 -15 -151 -15 -1114 -14 -5 0 -8 221 -8 490 l0 490
524 0 c422 0 540 -3 612 -15z"/>
<path d="M24680 35628 c-3 -3 -97 -8 -210 -12 -461 -13 -1041 -61 -1405 -115
-38 -6 -178 -27 -310 -46 -360 -54 -923 -164 -1520 -299 -351 -79 -386 -88
-595 -138 -113 -27 -270 -65 -350 -84 -150 -36 -647 -164 -735 -190 -27 -8
-124 -34 -215 -59 -256 -69 -650 -183 -870 -251 -384 -119 -880 -284 -1227
-408 -166 -59 -741 -280 -903 -346 -777 -319 -1510 -671 -2150 -1033 -179
-102 -229 -130 -405 -235 -485 -287 -1132 -732 -1578 -1086 -98 -77 -192 -152
-210 -166 -59 -45 -339 -284 -487 -416 -373 -332 -845 -820 -1130 -1170 -35
-43 -92 -113 -125 -154 -405 -497 -816 -1140 -1115 -1745 -484 -979 -734
-1879 -791 -2845 -28 -477 30 -1052 151 -1505 36 -138 139 -439 192 -565 496
-1177 1417 -1995 2670 -2369 768 -230 1676 -289 2618 -170 1059 132 1845 370
2781 839 254 127 393 205 842 474 54 33 476 315 522 349 24 18 84 61 135 97
50 36 110 79 134 95 243 173 759 598 1097 904 560 507 1280 1268 1427 1509
164 269 291 586 333 832 18 105 16 318 -4 407 -38 169 -128 337 -229 429 -135
121 -412 197 -723 198 -182 1 -247 -8 -440 -56 -109 -27 -359 -120 -370 -137
-2 -4 4 -36 14 -72 44 -151 83 -370 102 -564 19 -196 6 -594 -26 -790 -106
-659 -416 -1246 -930 -1760 -287 -288 -582 -514 -968 -744 -568 -337 -1147
-556 -1852 -700 -681 -139 -1491 -146 -2180 -20 -799 147 -1567 483 -2080 909
-169 140 -207 174 -325 296 -611 628 -1052 1562 -1199 2544 -70 466 -70 1022
-1 1485 150 1010 588 1974 1305 2875 200 251 346 412 639 706 374 373 626 592
1096 950 76 58 276 203 330 239 25 17 53 37 62 45 18 15 193 114 353 199 151
81 248 134 300 163 72 40 841 425 965 483 1113 516 2147 898 3295 1216 974
270 2040 482 2995 598 751 90 1669 133 2432 112 944 -26 1618 -89 2538 -236
540 -86 1201 -232 1623 -357 20 -6 37 -14 37 -17 0 -3 -21 -16 -48 -29 -129
-63 -392 -236 -561 -368 -667 -525 -1269 -1227 -1803 -2104 -68 -113 -167
-281 -218 -375 -51 -93 -113 -206 -138 -250 -57 -103 -378 -753 -430 -870 -22
-49 -69 -155 -104 -235 -160 -357 -361 -847 -483 -1175 -18 -49 -63 -171 -100
-270 -110 -297 -348 -995 -419 -1230 -8 -27 -31 -99 -50 -160 -65 -205 -158
-526 -270 -925 -213 -767 -490 -2011 -586 -2640 -26 -169 -45 -277 -81 -455
-276 -1348 -693 -2334 -1313 -3105 -114 -142 -419 -453 -546 -557 -380 -310
-596 -417 -965 -479 -110 -18 -319 -22 -765 -14 -356 6 -378 0 -560 -161 -182
-161 -1036 -1021 -1588 -1600 l-73 -77 173 -6 c95 -3 342 -8 548 -11 499 -7
1894 -30 3710 -60 817 -14 1520 -25 1563 -25 58 0 77 -3 77 -14 0 -7 -25 -79
-56 -160 -31 -81 -55 -148 -53 -150 2 -2 67 -43 144 -91 274 -172 416 -288
486 -396 87 -135 90 -284 11 -454 -86 -184 -464 -852 -670 -1183 -29 -46 -52
-85 -52 -87 0 -4 -187 -313 -263 -435 -22 -36 -47 -76 -56 -90 -8 -14 -54 -88
-101 -166 -214 -353 -506 -823 -511 -824 -3 0 -80 58 -170 130 -90 71 -166
130 -169 130 -3 0 -39 -48 -80 -107 -278 -406 -656 -787 -1008 -1015 -173
-113 -244 -155 -382 -224 -417 -208 -836 -333 -1255 -374 -129 -12 -227 -16
-229 -9 0 4 49 40 109 79 309 204 664 520 888 790 124 150 276 449 373 735
105 309 128 611 63 845 -19 71 -82 218 -97 230 -4 3 -19 24 -34 46 -43 66
-156 175 -242 234 -303 204 -779 300 -1337 271 -445 -23 -887 -132 -1309 -324
-25 -11 -73 -33 -108 -48 -157 -71 -527 -285 -702 -407 -194 -135 -403 -300
-562 -444 l-108 -99 -48 22 c-80 36 -184 69 -218 69 -24 0 -57 -16 -116 -56
-91 -62 -400 -296 -713 -539 -1285 -1000 -2039 -1485 -2471 -1592 -101 -25
-397 -25 -477 0 -71 22 -132 74 -141 120 -20 105 97 264 309 422 61 45 138
112 172 149 107 114 266 353 408 611 58 105 267 520 302 600 18 39 69 149 113
245 45 96 98 209 117 250 217 467 283 665 283 854 0 107 -20 166 -72 210 -133
115 -394 52 -768 -184 -131 -83 -249 -173 -364 -277 -92 -84 -176 -132 -243
-139 l-48 -6 -29 58 c-136 280 -381 492 -666 577 -178 53 -272 61 -418 36
-273 -46 -516 -128 -817 -274 -721 -352 -1456 -1040 -1928 -1806 -80 -130
-227 -421 -274 -544 -120 -310 -169 -617 -129 -815 33 -162 95 -270 228 -396
169 -161 338 -242 593 -286 197 -34 489 -13 729 52 449 122 877 360 1254 699
45 40 84 72 86 70 2 -2 76 -107 165 -232 191 -267 237 -327 333 -425 170 -173
319 -222 676 -222 453 0 720 91 1232 421 193 124 446 305 947 675 217 161 510
376 593 434 12 8 72 51 133 96 267 191 311 219 304 193 -3 -13 -18 -91 -33
-174 -22 -126 -27 -181 -28 -340 -1 -202 5 -248 53 -413 192 -665 966 -996
2266 -969 448 10 710 38 1170 128 878 171 1992 661 2885 1268 269 183 527 374
692 513 31 27 59 48 61 48 3 0 -6 -28 -19 -63 -63 -160 -123 -377 -153 -550
-52 -300 -34 -526 60 -726 33 -72 54 -98 137 -181 299 -297 755 -482 1377
-559 845 -105 1902 62 2710 429 39 17 88 39 110 49 32 15 78 19 225 24 507 17
917 153 1411 468 95 60 202 131 238 158 210 154 622 441 632 441 3 0 9 -53 12
-117 29 -555 236 -963 614 -1210 295 -193 703 -281 1170 -253 618 36 1125 105
1718 231 718 153 1501 428 2090 733 152 79 251 134 445 249 205 120 566 376
765 542 110 91 295 257 325 291 l25 28 -30 -19 c-343 -219 -1018 -496 -1520
-624 -276 -70 -589 -98 -745 -67 -99 20 -157 44 -210 86 l-38 30 177 178 c293
292 438 484 577 762 66 133 107 254 135 400 18 97 21 137 16 255 -7 173 -36
293 -102 426 -193 384 -615 664 -1150 761 -160 29 -497 31 -650 4 -238 -42
-585 -145 -795 -238 -578 -255 -1070 -587 -1535 -1038 l-110 -107 -90 -17
c-290 -56 -620 -170 -905 -312 -214 -106 -386 -223 -555 -375 -68 -62 -279
-226 -415 -323 -576 -411 -1030 -620 -1470 -676 -98 -13 -280 -7 -322 10 -13
5 -17 9 -8 9 22 1 106 48 173 97 437 318 937 1134 1063 1735 46 221 49 448 9
604 -42 163 -158 322 -301 411 -177 111 -560 201 -939 223 -157 9 -453 0 -615
-19 -382 -43 -932 -188 -1254 -329 -27 -12 -50 -20 -52 -18 -4 3 151 307 216
422 15 28 58 109 95 180 37 72 78 148 90 170 12 22 51 94 85 160 34 66 91 172
125 235 34 63 97 183 140 265 43 83 106 202 140 265 34 63 87 162 117 220 31
58 106 199 167 314 102 193 110 212 97 230 -8 12 -73 89 -144 171 -79 92 -125
153 -118 156 6 4 76 19 156 33 347 64 930 198 1280 296 102 29 194 54 205 57
50 13 239 70 440 135 642 205 1242 446 1855 746 1647 807 3016 1942 3832 3177
208 314 397 671 488 920 10 28 32 88 50 135 45 124 106 351 145 545 100 497
100 896 0 1287 -199 778 -848 1409 -1983 1929 -280 128 -647 274 -889 354 -46
14 -83 31 -83 36 0 5 19 21 43 35 450 280 990 659 1346 944 52 41 108 86 125
100 326 258 852 754 1103 1040 900 1028 1278 2037 1127 3015 -46 297 -125 543
-269 840 -170 350 -383 649 -680 954 -273 281 -514 470 -860 678 -203 122
-585 319 -811 418 -285 126 -381 166 -489 209 -887 346 -1815 607 -2860 805
-643 121 -1489 223 -2130 256 -66 4 -149 8 -185 11 -107 6 -1115 17 -1120 12z
m4715 -2133 c92 -22 306 -98 445 -160 30 -13 98 -43 150 -65 732 -322 1351
-748 1742 -1199 318 -367 521 -743 628 -1161 70 -273 84 -413 77 -742 -9 -412
-53 -618 -217 -1017 -73 -179 -90 -216 -162 -361 -464 -934 -1172 -1579 -2124
-1935 -52 -20 -114 -42 -137 -50 -362 -114 -500 -149 -821 -205 -527 -91 -911
-119 -1645 -121 l-486 -1 -35 -54 c-101 -158 -369 -338 -770 -517 -87 -39
-371 -148 -400 -154 l-33 -6 7 84 c10 116 32 247 73 429 19 85 42 184 49 220
93 423 527 1797 806 2548 27 72 71 194 98 270 48 136 157 423 243 642 133 340
163 413 245 610 50 118 109 258 132 310 23 52 54 124 70 160 49 116 157 340
288 600 71 140 175 347 232 460 451 897 695 1228 1015 1379 57 27 166 57 230
64 68 7 206 -6 300 -28z m-2545 -8476 c466 -16 1232 -62 1470 -89 47 -5 141
-14 210 -20 154 -14 346 -49 551 -100 1019 -256 1929 -858 2336 -1545 122
-204 191 -383 240 -612 24 -114 27 -150 27 -323 0 -169 -4 -217 -28 -355 -147
-846 -580 -1646 -1243 -2296 -809 -793 -1885 -1268 -3135 -1383 -672 -62
-1977 -73 -2993 -26 -879 41 -1908 131 -2655 230 -359 49 -379 53 -327 77 34
16 419 308 627 475 644 520 1233 1096 1621 1588 271 344 424 582 607 945 203
405 341 762 666 1732 230 687 277 817 392 1093 105 250 258 488 383 593 l33
27 486 -1 c268 -1 597 -6 732 -10z m-16570 -11360 c202 -32 403 -151 526 -310
56 -74 126 -204 153 -287 11 -35 26 -110 32 -167 11 -90 10 -118 -5 -209 -37
-227 -141 -412 -361 -643 -511 -537 -1369 -1015 -1961 -1094 -127 -17 -333 -7
-415 19 -251 82 -328 350 -224 788 105 443 444 1015 802 1354 165 157 297 247
508 351 218 106 433 178 610 202 63 9 273 6 335 -4z m21968 -39 c128 -22 255
-98 338 -201 173 -214 252 -445 224 -656 -39 -302 -232 -608 -635 -1009 -197
-196 -333 -309 -478 -394 -465 -275 -883 -175 -1046 249 -75 196 -70 483 13
749 128 406 290 703 505 925 83 86 174 160 226 182 342 148 610 196 853 155z
m-13546 -43 c91 -18 124 -35 160 -86 103 -144 76 -517 -67 -931 -110 -316
-236 -540 -411 -732 -453 -493 -948 -747 -1293 -662 -188 46 -332 181 -410
383 -62 160 -75 239 -75 431 1 154 4 190 28 294 37 159 75 266 146 411 134
272 305 473 543 636 194 134 474 236 731 269 107 13 556 4 648 -13z m6754
-147 c232 -48 408 -161 477 -307 29 -62 32 -78 35 -185 6 -189 -29 -329 -136
-548 -217 -440 -703 -927 -1014 -1014 -62 -18 -408 -46 -558 -46 -604 0 -806
274 -629 855 133 436 525 901 938 1113 176 91 337 138 531 155 81 7 271 -5
356 -23z m-9722 -1107 c16 -170 94 -386 169 -465 18 -19 52 -47 75 -62 40 -25
41 -28 37 -69 -3 -23 -14 -170 -26 -327 -11 -157 -26 -346 -32 -420 l-12 -135
-30 3 c-49 6 -143 62 -184 111 -182 218 -200 638 -56 1267 19 84 35 154 35
158 0 3 4 6 9 6 4 0 11 -30 15 -67z m7271 -783 c37 -74 95 -184 131 -246 79
-138 79 -151 -11 -240 -68 -69 -168 -125 -267 -150 -154 -40 -228 23 -236 202
-10 207 92 407 278 547 19 14 35 25 37 24 1 -2 32 -63 68 -137z m6660 -35
c216 -107 315 -245 315 -438 0 -69 -4 -92 -26 -135 -73 -146 -260 -163 -376
-34 -47 53 -65 86 -83 164 -26 109 -19 244 21 416 21 89 24 89 149 27z"/>
<path d="M16600 31884 c-477 -32 -790 -73 -1190 -158 -176 -37 -488 -110 -536
-125 -16 -5 -81 -24 -144 -41 -229 -63 -420 -122 -680 -210 -469 -158 -490
-167 -620 -264 -412 -306 -878 -720 -1240 -1101 -361 -380 -626 -717 -922
-1175 -159 -246 -372 -661 -482 -942 -269 -685 -388 -1356 -357 -2028 19 -410
64 -689 181 -1125 88 -329 297 -805 485 -1105 395 -633 820 -1023 1467 -1346
92 -46 171 -84 175 -84 4 0 21 -7 36 -15 54 -28 322 -124 475 -169 436 -130
839 -191 1337 -203 556 -13 1144 63 1650 212 153 45 191 57 300 95 910 314
1758 904 2235 1555 100 136 144 207 243 388 83 154 185 411 228 580 80 314
109 734 69 1027 -5 36 -14 101 -19 146 -15 110 -61 294 -115 459 -26 76 -43
142 -38 147 21 21 292 149 393 186 238 86 403 116 644 116 183 0 265 -9 404
-45 40 -11 75 -18 76 -17 8 11 60 214 80 313 123 619 110 1265 -41 1958 -48
224 -259 702 -464 1057 -105 181 -264 415 -386 568 -122 154 -337 379 -474
496 -52 44 -97 83 -100 87 -3 3 -48 37 -100 76 -514 378 -1090 592 -1800 669
-127 14 -651 26 -770 18z m-880 -2089 c122 -605 240 -1198 263 -1317 24 -119
46 -220 49 -224 6 -5 168 96 607 380 52 34 148 95 212 136 202 129 670 428
894 573 440 284 668 427 672 423 6 -6 -24 -55 -401 -658 -49 -79 -118 -190
-154 -248 -36 -58 -102 -163 -147 -235 -147 -233 -662 -1059 -674 -1083 -14
-26 -15 -25 79 -46 60 -13 494 -110 950 -212 107 -24 287 -65 400 -90 113 -25
255 -57 315 -70 193 -42 247 -56 238 -64 -4 -4 -62 -24 -128 -44 -66 -21 -223
-71 -350 -111 -126 -40 -246 -78 -265 -83 -19 -6 -93 -29 -165 -52 -71 -23
-242 -77 -380 -120 -137 -43 -331 -104 -430 -135 -99 -31 -232 -73 -295 -92
-63 -19 -119 -38 -124 -43 -6 -7 280 -452 337 -525 33 -41 955 -1430 952
-1433 -2 -2 -185 65 -407 149 -222 83 -448 169 -503 189 -55 21 -149 57 -210
80 -60 23 -150 57 -200 75 -49 18 -198 74 -330 125 -132 50 -301 114 -375 141
-74 28 -150 57 -168 65 -18 7 -35 14 -37 14 -6 0 -31 -90 -115 -405 -92 -344
-107 -402 -230 -855 -56 -206 -113 -418 -126 -470 -34 -130 -180 -673 -198
-735 -7 -27 -26 -96 -42 -153 -15 -56 -31 -99 -34 -95 -4 5 -17 51 -28 103
-12 52 -51 226 -86 385 -155 694 -211 946 -266 1195 -108 489 -170 763 -174
767 -3 4 -542 -344 -1471 -950 -176 -115 -366 -239 -423 -275 -170 -110 -465
-302 -579 -377 -58 -38 -117 -76 -130 -83 -23 -13 -24 -12 -14 7 6 10 140 219
297 463 289 446 341 527 449 696 33 50 121 186 195 301 74 116 191 297 259
403 69 106 172 265 230 353 57 88 106 168 109 178 4 16 -68 17 -1414 18
l-1419 0 115 57 c63 32 174 85 245 119 285 135 366 173 500 238 77 37 228 109
335 160 107 51 305 146 440 210 135 64 277 132 315 150 39 18 180 86 315 150
135 65 277 132 315 150 39 18 142 67 229 109 l159 77 -30 32 c-40 43 -99 109
-223 247 -56 63 -119 133 -139 155 -20 22 -113 125 -206 230 -155 173 -222
247 -325 360 -74 82 -147 163 -221 245 -170 191 -264 295 -269 300 -3 3 -61
68 -130 145 -68 77 -129 143 -135 147 -6 5 -3 8 7 8 17 0 73 -20 213 -75 33
-14 134 -52 225 -85 156 -58 333 -125 410 -155 122 -48 277 -107 685 -260 253
-95 593 -224 755 -285 334 -127 388 -146 395 -139 2 3 41 142 85 310 45 167
95 354 111 414 16 61 52 193 79 295 27 102 63 237 80 300 18 63 50 183 72 265
21 83 63 240 93 350 74 275 170 633 221 825 31 116 33 124 39 118 2 -2 104
-499 225 -1103z"/>
</g>
</svg>
