<?xml version="1.0" encoding="utf-8"?>
<!DOCTYPE svg PUBLIC "-//W3C//DTD SVG 20010904//EN" "http://www.w3.org/TR/2001/REC-SVG-20010904/DTD/svg10.dtd">
<svg version="1.0" xmlns="http://www.w3.org/2000/svg" width="1153pt" height="1153pt" viewBox="0 0 1153 1153" style="" preserveAspectRatio="xMidYMid meet">
<g fill="#1C208AFE" stroke="#1C208AFE">
<path d="M 610.932 261.381 C 610.620 261.705 606.570 262.148 601.932 262.366 C 587.505 263.045 577.814 264.029 576.003 264.998 C 575.046 265.511 574.031 265.698 573.749 265.415 C 573.205 264.871 560.553 266.731 558.000 267.731 C 557.175 268.053 556.166 268.247 555.757 268.161 C 554.687 267.936 517.690 276.084 516.518 276.803 C 515.977 277.134 514.852 277.469 514.018 277.548 C 509.955 277.930 500.972 280.237 500.485 281.024 C 500.183 281.513 499.321 281.677 498.569 281.388 C 497.817 281.100 496.901 281.352 496.532 281.948 C 496.163 282.545 495.499 282.808 495.056 282.534 C 493.505 281.576 438.459 298.133 432.500 301.349 C 431.400 301.943 430.275 302.470 430.000 302.521 C 426.279 303.205 423.000 304.304 423.000 304.867 C 423.000 305.256 422.213 305.640 421.250 305.721 C 416.574 306.113 371.000 326.508 371.000 328.209 C 371.000 328.709 370.550 328.840 370.000 328.500 C 369.450 328.160 369.000 328.284 369.000 328.774 C 369.000 329.265 368.437 329.667 367.750 329.667 C 365.241 329.667 334.569 347.794 332.888 350.269 C 332.552 350.765 332.036 351.020 331.742 350.835 C 330.787 350.236 309.112 366.143 296.649 376.589 C 286.002 385.515 274.929 396.354 262.950 409.580 C 257.856 415.205 248.000 428.490 248.000 429.732 C 248.000 430.312 247.296 431.056 246.437 431.386 C 245.577 431.716 245.153 432.439 245.496 432.993 C 245.838 433.547 245.672 434.000 245.126 434.000 C 243.839 434.000 235.576 447.781 229.237 460.500 C 220.687 477.655 212.885 501.073 211.414 514.000 C 211.132 516.475 210.440 522.550 209.877 527.500 C 207.167 551.295 214.051 580.105 227.236 600.149 C 233.484 609.648 243.474 621.000 245.584 621.000 C 246.363 621.000 247.000 621.412 247.000 621.915 C 247.000 623.297 255.609 629.333 264.159 633.944 C 272.971 638.698 285.448 643.107 297.232 645.633 C 309.309 648.222 355.838 648.073 360.111 645.431 C 360.623 645.115 363.138 644.651 365.702 644.400 C 368.265 644.149 370.885 643.510 371.523 642.981 C 372.162 642.451 372.952 642.285 373.279 642.612 C 374.001 643.334 396.000 637.013 396.000 636.083 C 396.000 635.722 396.831 635.363 397.847 635.286 C 400.619 635.078 415.000 628.852 415.000 627.861 C 415.000 627.388 415.338 627.089 415.750 627.198 C 417.157 627.570 421.000 625.868 421.000 624.874 C 421.000 624.328 421.450 624.160 422.000 624.500 C 422.550 624.840 423.000 624.641 423.000 624.059 C 423.000 623.477 423.369 623.113 423.821 623.250 C 424.913 623.583 438.447 616.164 440.875 613.902 C 441.927 612.922 442.961 612.294 443.172 612.506 C 443.773 613.106 466.540 596.586 476.000 588.685 C 496.637 571.451 525.914 541.287 524.393 538.827 C 524.112 538.372 524.282 538.000 524.770 538.000 C 525.751 538.000 529.891 529.657 530.476 526.500 C 530.680 525.400 530.950 524.275 531.076 524.000 C 531.202 523.725 531.392 523.050 531.499 522.500 C 531.606 521.950 532.047 520.682 532.479 519.683 C 533.545 517.220 532.417 505.639 531.068 505.189 C 530.474 504.991 530.225 504.445 530.516 503.974 C 530.806 503.504 529.642 501.523 527.928 499.571 C 522.077 492.907 507.535 491.015 495.000 495.285 C 488.869 497.374 488.512 497.667 488.713 500.433 C 488.831 502.047 489.222 504.072 489.583 504.933 C 490.930 508.146 491.482 526.395 490.417 532.500 C 490.130 534.150 489.753 536.625 489.579 538.000 C 489.406 539.375 488.913 541.400 488.484 542.500 C 488.054 543.600 486.674 547.093 485.417 550.262 C 474.569 577.602 442.193 602.403 405.500 611.481 C 401.650 612.433 397.825 613.461 397.000 613.765 C 396.175 614.069 395.235 614.270 394.910 614.212 C 394.586 614.154 391.436 614.537 387.910 615.064 C 373.286 617.248 345.731 615.735 333.137 612.057 C 331.288 611.517 329.488 611.131 329.137 611.199 C 328.787 611.267 327.320 610.833 325.877 610.234 C 324.434 609.636 322.409 609.001 321.377 608.823 C 320.345 608.645 319.275 608.207 319.000 607.850 C 318.725 607.492 317.600 607.042 316.500 606.850 C 315.400 606.657 314.275 606.237 314.000 605.917 C 313.725 605.596 310.575 603.863 307.000 602.066 C 303.425 600.270 298.361 597.270 295.748 595.400 C 293.134 593.530 290.659 591.960 290.248 591.912 C 288.290 591.681 273.136 573.546 268.595 565.999 C 254.670 542.859 248.282 512.472 251.890 486.538 C 252.423 482.709 252.819 479.334 252.771 479.038 C 252.722 478.742 252.944 477.825 253.263 477.000 C 254.279 474.378 256.487 464.549 256.352 463.250 C 256.281 462.563 256.670 462.000 257.218 462.000 C 257.766 462.000 257.955 461.325 257.638 460.500 C 257.322 459.675 257.463 459.000 257.952 459.000 C 258.775 459.000 260.356 453.864 259.990 452.378 C 259.902 452.018 260.205 451.448 260.665 451.112 C 261.124 450.775 263.877 445.775 266.781 440.000 C 279.303 415.105 299.653 392.177 328.602 370.349 C 337.135 363.914 345.002 359.309 362.602 350.444 C 375.196 344.101 386.063 338.463 386.750 337.916 C 387.438 337.369 388.000 337.151 388.000 337.432 C 388.000 337.987 400.182 332.941 401.000 332.046 C 401.275 331.746 402.400 331.343 403.500 331.150 C 404.600 330.958 405.725 330.508 406.000 330.150 C 406.275 329.793 407.400 329.343 408.500 329.150 C 409.600 328.958 410.831 328.283 411.235 327.650 C 411.639 327.018 411.976 326.804 411.985 327.175 C 411.993 327.547 417.738 325.827 424.750 323.353 C 431.763 320.880 442.675 317.303 449.000 315.404 C 455.325 313.505 461.175 311.678 462.000 311.343 C 462.825 311.009 464.400 310.612 465.500 310.461 C 468.013 310.117 479.992 307.115 482.000 306.326 C 482.825 306.002 484.850 305.569 486.500 305.364 C 488.150 305.158 490.175 304.714 491.000 304.376 C 491.825 304.038 493.625 303.643 495.000 303.499 C 498.760 303.104 510.291 300.902 512.000 300.252 C 512.825 299.939 513.833 299.753 514.241 299.838 C 514.648 299.924 519.598 299.317 525.241 298.489 C 556.540 293.898 583.726 292.840 614.106 295.030 C 637.867 296.743 639.858 296.936 649.865 298.507 C 655.015 299.315 659.597 299.749 660.046 299.472 C 660.494 299.194 661.161 299.451 661.526 300.043 C 661.892 300.634 663.161 301.025 664.346 300.910 C 665.530 300.796 667.220 301.017 668.101 301.401 C 668.981 301.785 670.106 302.006 670.601 301.891 C 671.095 301.776 672.175 301.939 673.000 302.252 C 674.839 302.951 693.914 307.263 696.018 307.456 C 700.523 307.868 700.032 309.352 694.100 313.250 C 690.745 315.455 688.000 317.650 688.000 318.129 C 688.000 318.608 687.273 319.000 686.383 319.000 C 684.388 319.000 658.000 345.353 658.000 347.346 C 658.000 348.138 657.363 349.030 656.584 349.329 C 653.682 350.443 637.295 376.866 627.818 395.712 C 622.425 406.437 618.262 415.614 618.566 416.106 C 618.869 416.598 618.690 417.000 618.167 417.000 C 617.312 417.000 615.810 421.031 616.067 422.634 C 616.124 422.987 615.738 423.552 615.210 423.888 C 613.266 425.125 599.678 461.344 600.753 462.420 C 601.072 462.739 600.760 463.000 600.060 463.000 C 599.338 463.000 599.036 463.651 599.362 464.500 C 599.678 465.325 599.453 466.000 598.862 466.000 C 598.270 466.000 598.045 466.675 598.362 467.500 C 598.678 468.325 598.453 469.000 597.862 469.000 C 597.270 469.000 597.034 469.646 597.337 470.435 C 597.640 471.225 597.538 472.012 597.110 472.185 C 594.616 473.194 573.956 550.502 575.509 553.015 C 575.797 553.481 575.554 554.158 574.968 554.519 C 574.383 554.881 573.995 555.925 574.106 556.839 C 574.217 557.752 574.027 559.175 573.683 560.000 C 573.340 560.825 572.121 567.099 570.973 573.943 C 569.826 580.787 568.255 589.092 567.484 592.400 C 566.712 595.708 566.284 598.617 566.532 598.865 C 566.780 599.113 566.585 599.807 566.099 600.408 C 565.613 601.009 564.273 604.875 563.121 609.000 C 558.343 626.113 548.676 646.744 539.838 658.689 C 531.602 669.822 526.748 674.448 511.461 685.733 C 510.889 686.155 509.764 686.674 508.961 686.888 C 498.586 689.641 495.123 690.062 483.382 689.993 C 471.187 689.922 470.061 690.077 467.382 692.190 C 465.797 693.441 455.364 703.688 444.198 714.963 C 424.297 735.056 423.951 735.477 426.698 736.238 C 428.239 736.665 438.725 737.012 450.000 737.009 C 474.500 737.003 525.451 737.824 554.297 738.689 C 571.791 739.214 575.006 739.541 574.543 740.749 C 572.670 745.629 572.862 746.765 575.923 748.945 C 577.615 750.150 579.000 750.852 579.000 750.504 C 579.000 750.156 581.535 752.366 584.632 755.415 C 590.049 760.745 590.246 761.123 589.781 765.254 C 589.468 768.026 587.141 773.354 583.220 780.275 C 579.877 786.174 577.448 791.007 577.821 791.015 C 578.195 791.024 577.992 791.361 577.371 791.765 C 576.036 792.634 564.790 811.000 565.593 811.000 C 565.895 811.000 565.548 811.595 564.821 812.322 C 562.897 814.247 549.761 835.744 549.988 836.597 C 550.093 836.995 549.432 837.739 548.518 838.250 C 547.359 838.898 546.324 838.699 545.099 837.590 C 544.133 836.715 542.978 836.000 542.532 836.000 C 542.085 836.000 541.108 835.213 540.360 834.250 C 539.072 832.594 538.943 832.593 537.961 834.229 C 537.391 835.180 536.932 836.183 536.941 836.459 C 536.949 836.734 535.172 838.882 532.991 841.230 C 530.810 843.579 529.019 845.750 529.012 846.055 C 528.988 847.126 522.219 854.000 521.188 854.000 C 520.614 854.000 519.260 855.125 518.179 856.500 C 517.097 857.875 515.958 859.000 515.646 859.000 C 515.335 859.000 512.250 860.801 508.790 863.003 C 495.730 871.314 467.000 879.447 467.000 874.833 C 467.000 874.192 467.288 873.955 467.640 874.307 C 469.541 876.208 490.839 855.672 494.868 848.052 C 499.186 839.887 501.815 830.340 501.780 822.951 C 501.751 816.784 499.646 809.000 498.008 809.000 C 497.582 809.000 496.999 808.102 496.712 807.005 C 496.425 805.908 495.360 804.704 494.345 804.330 C 493.330 803.957 492.157 803.085 491.738 802.393 C 489.549 798.779 467.025 794.062 458.609 795.454 C 456.349 795.828 453.600 796.120 452.500 796.103 C 449.432 796.056 433.000 800.073 433.000 800.871 C 433.000 801.258 432.152 801.638 431.116 801.716 C 428.630 801.904 414.759 808.781 413.789 810.308 C 413.372 810.964 413.024 811.149 413.015 810.720 C 412.993 809.584 398.000 819.879 398.000 821.030 C 398.000 821.564 397.344 822.000 396.543 822.000 C 395.741 822.000 393.866 823.528 392.375 825.397 C 389.674 828.782 389.652 828.789 385.726 827.403 C 383.560 826.639 381.272 826.301 380.644 826.652 C 377.370 828.480 357.000 844.412 357.000 845.145 C 357.000 845.615 356.554 846.000 356.008 846.000 C 355.462 846.000 349.950 849.764 343.758 854.365 C 328.515 865.692 316.665 873.308 307.547 877.638 C 301.362 880.575 298.742 881.263 293.546 881.311 C 281.988 881.420 281.111 877.444 290.832 869.000 C 297.806 862.942 309.892 846.036 307.285 845.985 C 306.853 845.976 307.002 845.639 307.616 845.235 C 309.101 844.256 313.254 836.004 312.270 835.985 C 311.847 835.976 312.010 835.639 312.634 835.235 C 314.019 834.337 320.150 821.006 319.187 820.985 C 318.809 820.976 319.012 820.639 319.638 820.235 C 321.482 819.044 326.074 807.168 326.685 802.011 C 327.156 798.032 326.900 796.900 325.125 795.125 C 323.947 793.947 321.723 793.000 320.134 793.000 C 316.264 793.000 304.302 799.106 298.894 803.842 C 291.227 810.557 290.557 810.666 287.160 805.757 C 283.346 800.246 279.790 797.237 274.136 794.736 C 269.102 792.509 259.895 792.013 257.683 793.848 C 256.931 794.472 256.070 794.737 255.769 794.436 C 254.567 793.233 238.789 800.372 230.407 805.910 C 222.138 811.376 205.000 826.221 205.000 827.920 C 205.000 828.331 203.200 830.617 201.000 833.000 C 198.800 835.383 197.178 837.511 197.395 837.728 C 197.612 837.946 196.721 839.277 195.414 840.688 C 194.107 842.098 193.281 843.645 193.578 844.126 C 193.875 844.607 193.713 845.000 193.218 845.000 C 191.414 845.000 182.643 864.083 183.185 866.830 C 183.258 867.198 182.967 868.304 182.538 869.286 C 181.096 872.589 182.521 881.673 185.077 885.476 C 190.930 894.182 202.000 898.077 215.434 896.156 C 219.798 895.532 223.623 894.679 223.934 894.261 C 224.245 893.842 225.400 893.366 226.500 893.202 C 229.623 892.736 241.000 886.990 241.000 885.878 C 241.000 885.330 241.380 885.117 241.845 885.404 C 242.310 885.692 245.403 883.742 248.717 881.071 L 254.743 876.215 257.281 879.107 C 258.677 880.698 259.605 882.000 259.343 882.000 C 258.041 882.000 268.336 893.767 271.032 895.360 C 274.419 897.361 288.493 898.832 291.671 897.518 C 292.677 897.102 294.794 896.638 296.375 896.487 C 297.957 896.336 299.637 895.602 300.110 894.856 C 300.583 894.110 300.976 893.845 300.985 894.267 C 301.022 896.147 325.000 881.756 325.000 879.853 C 325.000 879.384 325.502 879.000 326.116 879.000 C 326.730 879.000 332.917 874.816 339.866 869.703 C 357.379 856.816 362.703 853.000 363.169 853.000 C 363.390 853.000 363.393 857.435 363.175 862.856 C 362.838 871.230 363.092 873.420 364.863 877.422 C 367.085 882.447 374.762 891.265 376.160 890.401 C 376.622 890.115 377.000 890.303 377.000 890.818 C 377.000 892.907 395.391 898.918 402.145 899.036 C 403.440 899.059 409.000 899.309 414.500 899.592 C 420.000 899.875 428.100 899.649 432.500 899.089 C 436.900 898.529 442.300 897.838 444.500 897.553 C 451.500 896.647 463.000 893.666 463.000 892.758 C 463.000 892.276 463.394 892.125 463.875 892.423 C 465.018 893.129 474.283 890.003 475.235 888.591 C 475.639 887.991 475.976 887.834 475.985 888.242 C 476.000 888.982 484.051 886.148 485.000 885.069 C 485.275 884.756 486.175 884.366 487.000 884.203 C 489.573 883.693 509.052 873.593 511.057 871.729 C 512.104 870.755 513.135 870.080 513.348 870.229 C 514.027 870.704 530.000 859.835 530.000 858.898 C 530.000 858.404 530.689 858.000 531.531 858.000 C 532.374 858.000 533.322 857.325 533.638 856.500 C 533.955 855.675 534.693 855.000 535.278 855.000 C 535.864 855.000 537.236 854.213 538.328 853.250 C 540.255 851.552 540.294 851.574 539.629 854.000 C 536.163 866.643 535.799 868.947 536.257 875.347 C 536.528 879.131 537.143 882.513 537.625 882.863 C 538.106 883.214 538.624 884.175 538.776 885.000 C 539.130 886.927 547.122 894.042 548.190 893.382 C 548.636 893.107 549.000 893.308 549.000 893.828 C 549.000 895.184 560.358 899.740 568.000 901.450 C 575.586 903.147 579.642 903.416 594.269 903.194 C 604.802 903.034 624.242 899.874 626.568 897.944 C 627.182 897.434 627.921 897.254 628.211 897.544 C 628.942 898.275 640.333 893.953 641.235 892.601 C 641.639 891.996 641.976 891.815 641.985 892.199 C 641.993 892.583 643.561 892.246 645.468 891.449 C 647.375 890.652 651.331 890.000 654.258 890.000 C 657.185 890.000 662.253 889.304 665.520 888.453 C 672.562 886.618 683.000 882.087 683.000 880.863 C 683.000 880.389 683.353 880.113 683.785 880.250 C 684.886 880.601 698.000 871.959 698.000 870.883 C 698.000 870.397 698.609 870.000 699.354 870.000 C 700.099 870.000 701.899 868.896 703.354 867.548 C 704.809 866.199 706.000 865.354 706.000 865.670 C 706.000 865.986 706.632 865.720 707.405 865.079 C 708.563 864.118 708.926 864.667 709.471 868.207 C 710.930 877.682 711.260 879.000 712.170 879.000 C 712.692 879.000 712.907 879.342 712.648 879.760 C 711.598 881.459 715.370 887.659 720.442 892.572 C 723.843 895.866 727.987 898.659 731.667 900.137 C 736.931 902.251 739.012 902.475 753.000 902.437 C 761.525 902.413 771.650 901.851 775.500 901.188 C 779.350 900.525 784.075 899.748 786.000 899.463 C 793.176 898.398 804.537 895.752 805.592 894.900 C 806.193 894.414 806.918 894.251 807.203 894.537 C 807.489 894.822 809.023 894.533 810.611 893.893 C 812.200 893.254 814.425 892.606 815.556 892.454 C 818.860 892.010 837.468 884.843 837.835 883.872 C 838.020 883.386 838.525 883.207 838.958 883.474 C 840.799 884.612 873.000 866.122 873.000 863.927 C 873.000 863.498 873.678 863.001 874.506 862.823 C 876.249 862.449 887.860 852.874 887.944 851.741 C 887.975 851.324 885.638 852.310 882.750 853.933 C 879.863 855.555 873.900 858.312 869.500 860.058 C 865.100 861.804 861.050 863.511 860.500 863.851 C 859.950 864.191 859.163 864.533 858.750 864.610 C 858.338 864.687 857.888 864.844 857.750 864.958 C 857.613 865.073 856.600 865.321 855.500 865.510 C 854.400 865.699 849.424 866.628 844.442 867.574 C 835.742 869.227 830.234 869.069 827.088 867.076 C 825.981 866.375 827.018 864.704 831.889 859.341 C 838.369 852.205 844.572 842.930 845.158 839.500 C 845.346 838.400 845.950 837.179 846.500 836.786 C 847.050 836.394 847.500 832.344 847.500 827.786 C 847.500 820.468 847.153 818.874 844.529 814.136 C 839.297 804.690 828.762 798.095 815.565 796.002 C 809.229 794.997 798.884 795.437 796.545 796.810 C 796.020 797.119 794.265 797.516 792.645 797.694 C 784.504 798.585 760.963 810.876 752.317 818.750 C 750.355 820.538 748.449 822.000 748.083 822.000 C 747.716 822.000 745.479 823.975 743.110 826.388 C 740.013 829.543 737.717 830.949 734.937 831.394 C 727.847 832.528 714.277 838.065 708.191 842.307 C 701.300 847.111 685.350 859.100 682.750 861.431 C 681.788 862.294 680.663 863.061 680.250 863.135 C 678.281 863.491 675.000 865.418 675.000 866.220 C 675.000 866.714 674.550 866.840 674.000 866.500 C 673.450 866.160 673.000 866.284 673.000 866.774 C 673.000 867.265 672.438 867.721 671.750 867.788 C 671.063 867.855 667.350 869.043 663.500 870.429 C 659.289 871.944 654.308 872.957 651.000 872.970 L 645.500 872.993 648.500 871.150 C 650.150 870.137 653.421 867.214 655.769 864.655 C 663.137 856.627 673.688 838.922 672.373 836.794 C 672.103 836.357 672.287 836.000 672.783 836.000 C 673.918 836.000 676.288 828.276 675.530 827.049 C 675.221 826.548 675.425 825.856 675.984 825.510 C 677.292 824.701 677.287 815.573 675.975 810.848 C 674.928 807.081 667.653 799.478 666.045 800.472 C 665.564 800.769 665.020 800.559 664.835 800.004 C 664.108 797.825 649.833 795.876 638.041 796.345 C 624.207 796.896 625.575 796.729 614.750 799.183 C 609.938 800.274 606.000 801.483 606.000 801.869 C 606.000 802.255 605.213 802.624 604.250 802.689 C 603.288 802.753 601.443 803.139 600.151 803.546 C 597.810 804.282 597.808 804.273 599.426 801.143 C 600.320 799.414 600.702 797.993 600.276 797.985 C 599.849 797.976 599.976 797.639 600.557 797.235 C 602.063 796.188 610.211 781.003 609.276 780.985 C 608.849 780.976 608.976 780.639 609.557 780.235 C 611.063 779.188 619.211 764.003 618.276 763.985 C 617.849 763.976 617.976 763.639 618.559 763.235 C 620.258 762.056 627.006 749.340 626.305 748.638 C 625.954 748.287 626.161 748.000 626.766 748.000 C 629.446 748.000 629.086 743.896 626.072 740.091 C 624.382 737.958 623.000 735.939 623.000 735.606 C 623.000 735.273 624.323 735.000 625.941 735.000 C 627.559 735.000 629.148 734.570 629.473 734.044 C 629.798 733.518 630.633 733.306 631.329 733.573 C 633.318 734.336 663.347 726.472 679.603 720.931 C 696.607 715.135 715.102 707.438 716.209 705.696 C 716.627 705.038 716.976 704.845 716.985 705.267 C 717.000 706.018 727.016 701.337 728.000 700.119 C 728.275 699.778 729.165 699.353 729.979 699.174 C 732.254 698.672 748.450 688.883 758.676 681.830 C 781.732 665.926 801.238 646.881 815.089 626.750 C 818.401 621.938 820.748 617.993 820.305 617.985 C 819.862 617.976 820.004 617.639 820.621 617.235 C 822.103 616.264 828.249 604.004 827.264 603.985 C 826.844 603.976 826.996 603.639 827.602 603.235 C 828.914 602.360 832.372 591.895 834.124 583.500 C 835.564 576.598 835.870 558.461 834.596 555.500 C 834.123 554.400 833.600 552.481 833.434 551.236 C 832.597 544.934 821.771 527.861 816.368 524.321 C 815.066 523.468 812.442 521.343 810.537 519.598 C 804.447 514.019 780.030 500.565 779.985 502.763 C 779.976 503.168 779.639 502.995 779.235 502.377 C 778.831 501.759 774.343 499.700 769.263 497.800 L 760.025 494.346 772.941 485.654 C 795.069 470.762 812.489 456.047 825.168 441.538 C 829.476 436.609 833.000 431.997 833.000 431.288 C 833.000 430.580 833.397 430.000 833.883 430.000 C 835.245 430.000 842.512 418.350 846.359 410.000 C 849.757 402.623 853.265 392.058 852.879 390.364 C 852.771 389.889 853.008 388.762 853.406 387.860 C 854.185 386.093 853.652 367.691 852.659 362.090 C 850.107 347.692 842.167 334.068 828.065 319.887 C 820.027 311.803 806.259 301.667 803.317 301.667 C 802.593 301.667 802.000 301.362 802.000 300.990 C 802.000 299.019 756.901 280.325 754.992 281.505 C 754.540 281.784 754.020 281.629 753.835 281.161 C 753.465 280.221 728.428 272.908 724.173 272.497 C 722.703 272.355 720.825 271.972 720.000 271.646 C 717.888 270.810 709.169 268.962 708.258 269.156 C 707.841 269.245 706.825 269.052 706.000 268.728 C 703.658 267.807 685.898 265.045 679.092 264.544 C 675.718 264.295 672.571 263.853 672.098 263.561 C 670.115 262.335 612.010 260.265 610.932 261.381 M 693.000 528.070 C 707.433 528.094 724.809 530.694 736.019 534.507 C 739.771 535.783 743.101 536.566 743.420 536.247 C 743.739 535.928 744.000 536.101 744.000 536.632 C 744.000 537.164 745.516 538.147 747.370 538.817 C 749.223 539.487 754.470 542.277 759.029 545.018 C 763.589 547.758 767.452 550.000 767.614 550.000 C 767.933 550.000 771.562 553.292 776.795 558.329 C 780.771 562.156 788.165 573.167 790.003 578.000 C 790.736 579.925 791.664 581.950 792.066 582.500 C 793.554 584.536 792.288 605.341 790.255 612.250 C 789.162 615.963 788.546 619.007 788.884 619.015 C 789.223 619.024 789.038 619.361 788.472 619.765 C 787.907 620.169 786.585 622.525 785.535 625.000 C 781.554 634.377 773.214 647.281 765.174 656.500 C 764.123 657.705 751.728 669.000 751.456 669.000 C 751.351 669.000 748.224 671.039 744.508 673.531 C 732.549 681.550 712.896 689.714 700.949 691.624 C 698.753 691.975 696.710 692.661 696.409 693.148 C 696.108 693.634 695.493 693.805 695.043 693.527 C 694.593 693.248 690.686 693.470 686.362 694.020 C 677.541 695.141 649.928 696.516 640.000 696.328 C 634.978 696.233 596.309 694.568 588.000 694.089 C 586.006 693.975 573.876 692.931 567.000 692.283 C 563.975 691.998 559.700 691.606 557.500 691.412 C 552.479 690.970 539.272 689.128 536.149 688.434 C 534.002 687.957 534.284 687.564 539.399 683.901 C 542.480 681.695 545.000 679.465 545.000 678.945 C 545.000 678.425 545.671 678.000 546.492 678.000 C 547.312 678.000 548.545 677.100 549.232 676.000 C 549.919 674.900 550.930 674.000 551.480 674.000 C 552.029 674.000 553.608 672.914 554.989 671.586 C 556.370 670.259 559.953 666.996 562.950 664.336 C 575.411 653.279 596.891 630.000 594.632 630.000 C 594.337 630.000 595.109 628.907 596.347 627.571 C 601.278 622.249 617.888 586.246 616.470 583.952 C 616.205 583.522 616.362 583.020 616.820 582.835 C 617.277 582.651 620.452 574.175 623.873 564.000 C 630.491 544.323 635.716 532.555 639.351 529.140 C 641.421 527.195 642.887 527.027 660.040 526.773 C 670.193 526.623 680.525 526.851 683.000 527.280 C 685.475 527.709 689.975 528.064 693.000 528.070 M 748.000 319.568 C 753.775 321.994 761.538 325.754 765.250 327.925 C 768.963 330.095 772.000 331.589 772.000 331.244 C 772.000 330.900 772.661 331.491 773.468 332.559 C 774.276 333.626 774.951 334.163 774.968 333.750 C 774.986 333.338 775.880 333.788 776.955 334.750 C 793.373 349.447 797.831 353.692 797.908 354.700 C 797.959 355.360 798.788 356.341 799.750 356.880 C 800.713 357.419 801.303 358.003 801.061 358.180 C 800.820 358.356 801.784 360.525 803.204 363.000 C 804.623 365.475 806.373 369.188 807.093 371.250 C 807.813 373.313 808.649 375.000 808.951 375.001 C 809.253 375.001 809.565 376.128 809.644 377.504 C 809.724 378.881 810.111 380.793 810.504 381.754 C 812.424 386.444 812.540 405.713 810.680 411.000 C 810.389 411.825 809.608 414.300 808.943 416.500 C 808.278 418.700 806.472 423.313 804.930 426.750 C 803.387 430.188 802.340 433.000 802.602 433.000 C 802.864 433.000 802.601 433.563 802.016 434.250 C 801.431 434.938 798.999 438.592 796.611 442.371 C 792.342 449.127 780.200 463.801 778.770 463.933 C 778.369 463.970 775.669 465.802 772.770 468.005 C 766.472 472.792 753.977 479.082 745.000 481.984 C 741.425 483.140 737.825 484.350 737.000 484.674 C 736.175 484.998 734.375 485.417 733.000 485.605 C 731.625 485.793 728.250 486.416 725.500 486.989 C 716.476 488.870 700.463 490.038 684.640 489.970 L 672.781 489.919 669.389 493.411 C 665.817 497.089 656.072 502.886 649.750 505.093 C 647.688 505.813 646.000 506.666 646.000 506.988 C 646.000 507.311 645.073 507.644 643.939 507.730 C 642.055 507.872 641.911 507.434 642.267 502.625 C 642.482 499.732 642.906 496.945 643.211 496.432 C 643.515 495.919 644.080 493.925 644.466 492.000 C 645.598 486.347 653.574 459.585 658.400 445.250 C 660.853 437.963 662.554 431.993 662.180 431.985 C 661.806 431.976 661.965 431.639 662.534 431.235 C 663.444 430.587 671.343 409.925 672.180 406.000 C 672.356 405.175 672.753 404.275 673.062 404.000 C 673.738 403.399 677.810 393.123 678.215 391.000 C 678.372 390.175 678.733 389.275 679.018 389.000 C 679.303 388.725 681.736 383.550 684.426 377.500 C 688.770 367.727 705.280 335.327 709.062 329.153 C 710.682 326.510 716.601 320.071 719.241 318.082 C 722.711 315.468 728.464 314.005 733.000 314.584 C 735.475 314.900 742.225 317.143 748.000 319.568 M 263.790 812.903 C 274.883 818.592 278.674 831.592 272.516 842.829 C 269.225 848.835 260.891 856.978 251.687 863.180 C 248.284 865.474 245.225 867.760 244.888 868.260 C 244.552 868.761 244.102 869.047 243.888 868.895 C 243.675 868.743 240.529 870.023 236.897 871.739 C 227.052 876.390 219.929 878.171 212.256 877.898 C 205.852 877.671 205.367 877.481 202.949 874.251 C 200.577 871.082 200.450 870.366 201.131 863.993 C 203.033 846.193 218.146 823.995 233.500 816.449 C 236.800 814.827 239.831 813.050 240.235 812.500 C 240.639 811.950 240.976 811.799 240.985 812.164 C 240.993 812.528 242.238 812.455 243.750 811.999 C 249.092 810.392 259.838 810.876 263.790 812.903 M 471.880 814.284 C 472.771 814.953 473.572 815.950 473.659 816.500 C 474.216 820.007 474.189 824.861 473.601 827.000 C 473.222 828.375 472.767 830.625 472.589 832.000 C 472.179 835.156 471.526 836.857 467.400 845.500 C 463.997 852.627 454.875 863.123 449.656 865.917 C 448.214 866.688 446.135 868.157 445.036 869.181 C 443.938 870.204 442.693 871.042 442.269 871.043 C 441.846 871.044 439.925 871.482 438.000 872.016 C 425.184 875.577 416.387 867.591 416.500 852.500 C 416.529 848.650 416.905 844.938 417.336 844.250 C 417.766 843.563 417.864 842.588 417.553 842.085 C 417.242 841.582 417.328 841.020 417.744 840.835 C 418.160 840.651 420.016 837.454 421.869 833.731 C 424.639 828.165 432.000 818.737 432.000 820.755 C 432.000 821.060 432.788 820.619 433.750 819.776 C 439.470 814.760 451.144 811.814 462.380 812.552 C 466.714 812.836 470.989 813.616 471.880 814.284 M 812.114 813.765 C 814.859 815.346 820.000 822.475 820.000 824.700 C 820.000 825.415 820.367 826.000 820.816 826.000 C 822.553 826.000 820.151 837.955 817.372 843.141 C 813.523 850.323 798.891 865.056 792.333 868.353 C 784.642 872.218 780.391 872.576 775.058 869.807 C 766.474 865.349 764.201 854.364 768.994 840.500 C 770.326 836.650 771.321 833.163 771.207 832.750 C 771.093 832.338 771.525 832.000 772.167 832.000 C 772.808 832.000 773.070 831.737 772.749 831.415 C 772.427 831.094 772.806 830.082 773.590 829.165 C 774.375 828.249 774.937 827.275 774.839 827.000 C 774.742 826.725 776.569 824.405 778.899 821.844 C 787.184 812.740 803.465 808.780 812.114 813.765 M 637.500 816.492 C 643.745 818.663 645.270 819.532 647.520 822.206 C 654.206 830.151 645.689 850.282 630.775 861.788 C 624.135 866.911 621.016 868.106 613.500 868.406 C 602.973 868.827 596.914 867.441 593.471 863.824 C 590.502 860.703 590.441 860.447 591.138 853.927 C 591.792 847.805 594.642 840.668 599.258 833.597 C 600.817 831.207 607.219 825.249 611.586 822.124 C 618.641 817.074 631.274 814.329 637.500 816.492 M 395.453 849.601 C 395.827 851.593 397.210 854.301 398.526 855.617 C 401.130 858.221 401.430 860.789 400.438 872.000 C 399.646 880.956 399.481 881.328 396.921 879.958 C 392.832 877.769 390.811 870.879 391.166 860.340 C 391.342 855.102 391.827 850.607 392.243 850.350 C 392.659 850.092 393.000 848.757 393.000 847.382 C 393.000 843.816 394.647 845.306 395.453 849.601 M 577.889 867.193 L 581.279 873.362 578.124 876.181 C 573.859 879.991 568.327 880.152 567.409 876.493 C 566.445 872.652 567.806 867.385 570.629 864.029 C 572.031 862.363 573.475 861.005 573.839 861.012 C 574.203 861.018 576.025 863.800 577.889 867.193 M 744.686 865.950 C 750.494 869.491 752.218 876.786 748.046 880.164 C 745.136 882.520 744.672 882.482 741.336 879.613 C 738.905 877.522 738.571 876.546 738.640 871.744 C 738.717 866.415 739.395 863.996 740.809 864.004 C 741.189 864.006 742.934 864.882 744.686 865.950 "/></g>
<g fill="#E60014FE" stroke="#E60014FE">
<path d="M 409.000 355.984 C 392.179 357.616 374.034 361.731 353.013 368.681 C 340.205 372.915 339.048 373.525 330.013 380.811 C 300.772 404.390 278.935 433.234 269.127 461.235 C 263.942 476.035 262.542 484.759 262.585 502.000 C 262.618 515.293 262.996 518.995 265.240 528.000 C 275.134 567.700 298.539 592.690 334.957 602.436 C 380.639 614.661 432.520 600.689 463.635 567.782 C 471.786 559.161 477.153 550.209 480.791 539.167 C 484.894 526.711 484.305 506.156 479.491 493.809 C 478.983 492.507 480.002 491.526 483.931 489.535 C 492.325 485.281 500.371 483.663 509.613 484.370 L 517.726 484.991 518.959 479.245 C 521.179 468.902 521.450 449.369 519.532 437.902 C 517.661 426.709 516.072 422.048 509.939 409.757 C 498.374 386.582 480.442 369.318 459.938 361.622 C 446.314 356.508 426.363 354.300 409.000 355.984 M 395.500 412.000 C 399.064 429.772 402.152 444.486 402.363 444.696 C 402.573 444.907 415.965 436.576 432.123 426.183 C 448.280 415.791 461.669 407.430 461.876 407.603 C 462.243 407.911 435.554 451.296 429.798 459.750 C 428.206 462.088 427.077 464.000 427.288 464.000 C 427.652 464.000 469.817 473.337 474.895 474.542 C 476.212 474.855 476.887 475.469 476.395 475.907 C 475.903 476.345 464.250 480.203 450.500 484.480 C 436.750 488.758 425.167 492.556 424.759 492.919 C 424.352 493.283 431.210 504.330 439.999 517.468 C 448.788 530.605 455.819 541.514 455.623 541.711 C 455.426 541.907 442.833 537.380 427.637 531.650 L 400.008 521.233 398.654 525.866 C 397.910 528.415 393.777 543.672 389.471 559.771 C 385.165 575.870 381.334 588.695 380.958 588.271 C 380.582 587.847 377.495 574.900 374.097 559.500 C 370.700 544.100 367.601 530.718 367.210 529.763 C 366.582 528.226 365.810 528.475 360.500 531.921 C 357.200 534.063 342.633 543.528 328.129 552.954 C 313.625 562.380 301.605 569.938 301.417 569.750 C 301.229 569.562 309.811 555.929 320.489 539.454 L 339.902 509.500 304.428 509.000 L 268.954 508.500 305.964 490.878 L 342.975 473.256 322.009 449.939 C 310.479 437.115 301.189 426.478 301.365 426.301 C 301.542 426.125 314.245 430.746 329.593 436.571 C 344.942 442.396 359.894 448.069 362.819 449.179 C 365.744 450.288 368.304 451.029 368.507 450.827 C 368.709 450.624 372.968 435.168 377.970 416.479 C 388.447 377.338 388.053 378.719 388.601 379.268 C 388.832 379.498 391.936 394.228 395.500 412.000 "/></g>
<g fill="#1C208AFE" stroke="#1C208AFE">
<path d="M 978.253 218.056 C 974.817 218.508 971.461 219.215 970.795 219.626 C 970.129 220.038 968.568 220.483 967.325 220.616 C 964.068 220.963 951.411 227.814 947.808 231.180 C 946.119 232.757 944.168 234.374 943.472 234.774 C 940.957 236.218 933.938 245.591 930.591 251.975 C 925.793 261.127 923.870 269.473 923.870 281.136 C 923.870 286.550 924.215 291.539 924.637 292.222 C 925.060 292.906 925.467 294.148 925.542 294.982 C 925.843 298.321 927.200 303.000 927.867 303.000 C 928.256 303.000 928.636 303.818 928.711 304.817 C 928.902 307.354 935.867 319.012 937.586 319.671 C 938.363 319.970 939.000 320.824 939.000 321.571 C 939.000 323.185 949.220 331.872 955.334 335.456 C 960.404 338.427 970.876 342.195 972.048 341.470 C 972.496 341.194 973.126 341.394 973.448 341.916 C 974.583 343.752 995.315 343.847 1002.000 342.047 C 1008.151 340.391 1018.000 335.933 1018.000 334.804 C 1018.000 334.297 1018.393 334.125 1018.874 334.422 C 1019.355 334.719 1020.953 333.846 1022.426 332.481 C 1023.898 331.117 1025.490 330.000 1025.963 330.000 C 1027.740 330.000 1038.826 316.803 1041.910 311.018 C 1043.674 307.708 1044.753 304.993 1044.309 304.985 C 1043.864 304.976 1044.013 304.639 1044.641 304.235 C 1046.583 302.984 1049.078 292.910 1049.651 284.000 C 1050.027 278.158 1049.703 273.154 1048.613 268.000 C 1046.980 260.276 1040.669 246.000 1038.886 246.000 C 1038.334 246.000 1038.127 245.603 1038.427 245.118 C 1038.985 244.215 1028.209 232.000 1026.854 232.000 C 1026.441 232.000 1024.880 230.866 1023.384 229.480 C 1014.530 221.274 993.756 216.016 978.253 218.056 M 998.000 226.324 C 1004.544 228.596 1010.626 230.379 1011.250 230.207 C 1011.663 230.093 1012.000 230.525 1012.000 231.167 C 1012.000 231.808 1012.279 232.055 1012.619 231.714 C 1012.960 231.374 1013.820 231.636 1014.532 232.298 C 1015.244 232.959 1018.780 235.750 1022.390 238.500 C 1026.000 241.250 1028.965 243.868 1028.977 244.317 C 1028.990 244.766 1030.090 246.566 1031.421 248.317 C 1044.686 265.757 1045.453 291.854 1033.239 310.190 C 1029.678 315.536 1022.515 324.000 1021.553 324.000 C 1021.304 324.000 1019.109 325.344 1016.676 326.986 C 1012.975 329.483 1007.296 331.969 999.000 334.721 C 991.657 337.157 976.099 336.029 967.501 332.436 C 965.576 331.632 964.000 331.236 964.000 331.558 C 964.000 331.880 963.289 331.432 962.419 330.562 C 961.550 329.693 960.425 329.237 959.919 329.550 C 959.414 329.862 959.000 329.738 959.000 329.275 C 959.000 328.811 957.649 327.633 955.997 326.657 C 953.086 324.937 940.346 313.000 941.422 313.000 C 941.715 313.000 940.597 310.863 938.936 308.250 C 934.403 301.119 931.714 291.157 931.743 281.607 C 931.770 272.929 932.312 267.711 933.522 264.500 C 941.464 243.422 957.410 229.547 977.763 226.006 C 982.565 225.171 995.254 225.370 998.000 226.324 "/></g>
<g fill="#1C208AFE" stroke="#1C208AFE">
<path d="M 961.000 279.418 L 961.000 317.000 966.000 317.000 L 971.000 317.000 971.000 300.573 L 971.000 284.147 979.599 283.823 C 984.328 283.646 988.371 283.783 988.582 284.128 C 988.794 284.474 990.550 285.508 992.484 286.425 C 994.418 287.343 996.000 288.647 996.000 289.324 C 996.000 290.001 997.427 292.117 999.172 294.027 C 1000.917 295.937 1002.235 297.632 1002.103 297.794 C 1001.970 297.956 1004.591 302.344 1007.926 307.544 L 1013.990 317.000 1019.995 317.000 C 1023.298 317.000 1026.000 316.654 1026.000 316.232 C 1026.000 315.180 1020.906 307.674 1019.576 306.765 C 1018.925 306.321 1018.895 306.012 1019.500 305.984 C 1020.050 305.958 1019.626 305.276 1018.559 304.468 C 1017.491 303.661 1016.956 303.000 1017.369 303.000 C 1018.947 303.000 1007.458 287.704 1004.235 285.514 C 1000.641 283.072 1001.101 281.872 1005.824 281.368 C 1009.772 280.948 1015.817 276.279 1018.029 271.942 C 1020.356 267.382 1020.583 258.647 1018.509 253.484 C 1017.158 250.120 1010.354 243.663 1009.026 244.484 C 1008.555 244.775 1007.983 244.447 1007.753 243.756 C 1007.438 242.809 1001.634 242.418 984.168 242.168 L 961.000 241.836 961.000 279.418 M 1003.466 252.421 C 1009.286 254.853 1011.590 262.024 1008.483 268.033 C 1005.822 273.178 1002.100 274.308 985.749 274.935 L 970.997 275.500 970.999 263.250 L 971.000 251.000 985.532 251.000 C 995.829 251.000 1001.055 251.414 1003.466 252.421 "/></g>
<g fill="#1C208AFE" stroke="#1C208AFE">
<path d="M 309.500 398.464 L 303.500 404.549 309.500 398.464 L 315.500 392.378 309.500 398.464 "/></g>
<g fill="#D80816FE" stroke="#D80816FE">
<path d="M 490.000 381.000 L 495.000 386.000 490.000 381.000 L 485.000 376.000 490.000 381.000 "/></g>
<g fill="#D80816FE" stroke="#D80816FE">
<path d="M 292.000 579.000 L 296.000 583.000 292.000 579.000 L 288.000 575.000 292.000 579.000 "/></g>
<g fill="#1C208AFE" stroke="#1C208AFE">
<path d="M 304.007 565.750 C 303.873 566.163 303.816 566.838 303.882 567.250 C 303.947 567.663 303.550 568.068 303.000 568.150 C 302.450 568.233 302.563 568.345 303.250 568.400 C 303.938 568.455 304.444 567.713 304.375 566.750 C 304.306 565.788 304.140 565.338 304.007 565.750 "/></g>
<g fill="#1C208AFE" stroke="#1C208AFE">
<path d="M 338.000 467.000 L 340.500 469.500 338.000 467.000 L 335.500 464.500 338.000 467.000 "/></g>
<g fill="#1C208AFE" stroke="#1C208AFE">
<path d="M 330.000 458.000 L 332.000 460.000 330.000 458.000 L 328.000 456.000 330.000 458.000 "/></g>
<g fill="#1C208AFE" stroke="#1C208AFE">
<path d="M 321.000 448.000 L 323.000 450.000 321.000 448.000 L 319.000 446.000 321.000 448.000 "/></g>
<g fill="#1C208AFE" stroke="#1C208AFE">
<path d="M 312.000 438.000 L 314.000 440.000 312.000 438.000 L 310.000 436.000 312.000 438.000 "/></g>
<g fill="#D80816FE" stroke="#D80816FE">
<path d="M 458.000 573.888 L 456.500 575.563 458.000 573.888 L 459.500 572.212 458.000 573.888 "/></g>
<g fill="#D80816FE" stroke="#D80816FE">
<path d="M 465.000 566.888 L 463.500 568.563 465.000 566.888 L 466.500 565.212 465.000 566.888 "/></g>
<g fill="#D80816FE" stroke="#D80816FE">
<path d="M 365.898 527.701 C 365.824 528.140 365.823 528.275 365.897 528.000 C 365.970 527.725 366.467 528.175 367.000 529.000 C 367.582 529.901 367.975 530.025 367.985 529.309 C 368.002 527.949 366.103 526.485 365.898 527.701 "/></g>
<g fill="#D80816FE" stroke="#D80816FE">
<path d="M 325.000 453.000 L 327.000 455.000 325.000 453.000 L 323.000 451.000 325.000 453.000 "/></g>
<g fill="#D80816FE" stroke="#D80816FE">
<path d="M 316.000 443.000 L 318.000 445.000 316.000 443.000 L 314.000 441.000 316.000 443.000 "/></g>
<g fill="#D80816FE" stroke="#D80816FE">
<path d="M 307.000 433.000 L 309.000 435.000 307.000 433.000 L 305.000 431.000 307.000 433.000 "/></g>
<g fill="#1C208AFE" stroke="#1C208AFE">
<path d="M 380.030 585.691 C 380.014 586.346 380.507 587.195 381.126 587.578 C 381.955 588.090 381.963 587.776 381.157 586.387 C 380.554 585.349 380.047 585.036 380.030 585.691 "/></g>
<g fill="#1C208AFE" stroke="#1C208AFE">
<path d="M 297.500 584.500 L 299.000 586.000 297.500 584.500 L 296.000 583.000 297.500 584.500 "/></g>
<g fill="#1C208AFE" stroke="#1C208AFE">
<path d="M 454.378 577.378 L 453.500 578.256 454.378 577.378 L 455.256 576.500 454.378 577.378 "/></g>
<g fill="#1C208AFE" stroke="#1C208AFE">
<path d="M 286.500 573.500 L 288.000 575.000 286.500 573.500 L 285.000 572.000 286.500 573.500 "/></g>
<g fill="#1C208AFE" stroke="#1C208AFE">
<path d="M 303.500 428.500 L 305.000 430.000 303.500 428.500 L 302.000 427.000 303.500 428.500 "/></g>
<g fill="#1C208AFE" stroke="#1C208AFE">
<path d="M 323.378 385.378 L 322.500 386.256 323.378 385.378 L 324.256 384.500 323.378 385.378 "/></g>
<g fill="#1C208AFE" stroke="#1C208AFE">
<path d="M 483.500 374.500 L 485.000 376.000 483.500 374.500 L 482.000 373.000 483.500 374.500 "/></g>
<g fill="#D80816FE" stroke="#D80816FE">
<path d="M 423.650 492.758 C 423.274 493.365 423.385 494.120 423.896 494.436 C 424.407 494.751 424.714 494.255 424.578 493.332 C 424.424 492.281 424.077 492.066 423.650 492.758 "/></g>
<g fill="#D80816FE" stroke="#D80816FE">
<path d="M 475.000 476.047 C 474.010 476.656 473.925 476.975 474.750 476.985 C 475.438 476.993 476.113 476.578 476.250 476.062 C 476.404 475.485 475.924 475.479 475.000 476.047 "/></g>
<g fill="#D80816FE" stroke="#D80816FE">
<path d="M 334.500 463.500 L 336.000 465.000 334.500 463.500 L 333.000 462.000 334.500 463.500 "/></g>
<g fill="#D80816FE" stroke="#D80816FE">
<path d="M 301.378 407.378 L 300.500 408.256 301.378 407.378 L 302.256 406.500 301.378 407.378 "/></g>
<g fill="#D80816FE" stroke="#D80816FE">
<path d="M 319.378 389.378 L 318.500 390.256 319.378 389.378 L 320.256 388.500 319.378 389.378 "/></g>
</svg>
