<?xml version="1.0" encoding="utf-8"?>
<!DOCTYPE svg PUBLIC "-//W3C//DTD SVG 20010904//EN" "http://www.w3.org/TR/2001/REC-SVG-20010904/DTD/svg10.dtd">
<svg version="1.0" xmlns="http://www.w3.org/2000/svg" width="242pt" height="242pt" viewBox="0 0 242 242" style="" preserveAspectRatio="xMidYMid meet">
<g fill="#1D208BFF" stroke="#1D208BFF">
<path d="M 121.500 55.600 C 120.400 55.852 115.225 57.001 110.000 58.154 C 104.775 59.307 99.375 60.719 98.000 61.291 C 96.625 61.864 95.163 62.426 94.750 62.541 C 94.338 62.656 93.888 62.840 93.750 62.949 C 93.613 63.059 92.453 63.343 91.172 63.580 C 86.911 64.369 73.901 70.895 67.542 75.433 C 44.325 92.000 37.252 118.171 52.577 130.803 C 57.397 134.776 62.835 136.095 72.377 135.606 C 79.135 135.259 81.406 134.625 88.377 131.140 C 97.306 126.676 107.519 118.166 110.426 112.767 C 112.775 108.405 111.984 104.464 108.588 103.611 C 104.237 102.519 103.011 103.754 102.882 109.357 C 102.816 112.186 102.835 114.893 102.922 115.373 C 103.010 115.853 102.411 115.988 101.592 115.674 C 100.575 115.283 100.281 115.569 100.667 116.574 C 101.524 118.807 94.792 124.560 88.620 126.869 C 74.709 132.074 60.331 127.332 55.665 116.000 C 51.844 106.720 52.963 97.974 59.187 88.480 C 63.247 82.286 63.269 82.265 70.213 77.699 C 77.788 72.718 88.263 68.343 99.949 65.281 C 107.883 63.201 111.785 62.779 123.000 62.787 C 130.425 62.793 138.576 63.316 141.113 63.950 L 145.726 65.103 140.613 70.342 C 131.931 79.236 125.623 93.742 120.506 116.579 C 117.228 131.208 114.768 137.118 110.339 141.007 C 107.768 143.265 105.947 144.000 102.928 144.000 C 99.487 144.000 98.299 144.644 94.463 148.592 C 92.008 151.117 90.000 153.592 90.000 154.092 C 90.000 154.595 96.634 155.000 104.893 155.000 C 117.209 155.000 119.886 155.260 120.362 156.500 C 120.678 157.325 121.626 158.000 122.469 158.000 C 124.790 158.000 124.335 159.936 120.528 166.250 C 118.621 169.413 117.304 172.000 117.602 172.000 C 117.899 172.000 117.468 172.675 116.643 173.500 C 115.818 174.325 114.422 175.000 113.540 175.000 C 112.658 175.000 111.683 175.663 111.372 176.474 C 110.628 178.413 101.227 184.176 100.562 183.101 C 100.279 182.642 100.920 181.478 101.986 180.513 C 103.052 179.548 104.432 177.220 105.052 175.341 C 107.843 166.886 98.221 163.681 87.199 169.394 C 85.383 170.335 83.658 171.728 83.366 172.489 C 83.074 173.251 82.226 173.640 81.482 173.355 C 80.386 172.934 74.846 176.534 65.500 183.737 C 64.950 184.161 63.512 184.365 62.304 184.191 C 60.167 183.884 60.194 183.763 63.317 179.672 C 66.753 175.170 69.791 167.457 68.597 166.264 C 68.198 165.864 66.496 166.327 64.815 167.291 C 62.536 168.599 61.421 168.764 60.427 167.940 C 57.726 165.698 49.000 166.541 49.000 169.044 C 49.000 169.441 48.141 169.991 47.091 170.266 C 46.042 170.540 43.792 172.685 42.091 175.033 C 38.335 180.218 37.914 185.349 41.105 187.056 C 43.553 188.366 50.000 187.447 50.000 185.788 C 50.000 185.171 50.296 184.963 50.658 185.325 C 51.020 185.687 51.852 185.538 52.506 184.995 C 53.329 184.312 54.254 184.623 55.503 186.004 C 58.520 189.337 62.995 188.578 69.781 183.582 L 75.783 179.164 76.357 182.037 C 78.177 191.133 96.561 190.447 110.294 180.770 L 113.088 178.801 112.482 181.214 C 112.080 182.816 112.524 184.426 113.805 186.007 C 115.389 187.963 116.872 188.458 122.116 188.781 C 128.972 189.203 141.056 186.475 145.206 183.568 C 148.010 181.604 149.000 181.587 149.000 183.500 C 149.000 184.325 149.900 185.900 151.000 187.000 C 154.756 190.756 167.829 189.182 178.679 183.670 C 183.774 181.081 187.447 177.798 183.414 179.439 C 179.799 180.909 174.812 182.145 174.352 181.686 C 174.099 181.433 174.815 179.712 175.942 177.863 C 178.606 173.493 178.532 171.848 175.540 169.038 C 172.021 165.732 166.408 165.946 160.459 169.614 C 157.884 171.201 154.590 173.107 153.139 173.848 C 151.687 174.589 148.250 176.679 145.500 178.492 C 142.750 180.305 139.375 182.117 138.000 182.519 L 135.500 183.248 137.625 180.874 C 140.560 177.595 142.000 174.571 142.000 171.688 C 142.000 167.793 139.761 166.719 132.597 167.175 L 126.182 167.583 129.156 161.690 C 130.792 158.449 131.859 155.526 131.527 155.194 C 131.195 154.861 133.978 153.758 137.711 152.743 C 158.689 147.037 175.538 131.860 174.864 119.280 C 174.753 117.201 174.060 114.280 173.325 112.789 C 171.912 109.923 164.063 104.744 160.763 104.501 C 159.094 104.378 159.225 104.091 161.653 102.551 C 167.255 98.999 174.624 91.512 176.959 87.000 C 180.901 79.381 178.198 70.125 170.492 64.857 C 165.880 61.703 153.387 57.329 146.344 56.401 C 139.828 55.542 123.985 55.032 121.500 55.600 M 158.598 114.372 C 165.045 117.759 167.076 122.435 165.060 129.247 C 163.423 134.780 156.012 142.039 149.993 144.006 C 145.067 145.615 120.439 146.159 115.979 144.756 C 113.497 143.976 113.563 143.855 120.229 136.974 C 126.396 130.608 127.475 129.007 127.118 126.750 C 127.053 126.338 127.379 126.000 127.842 126.000 C 128.305 126.000 129.251 124.088 129.945 121.750 C 130.639 119.413 131.838 115.977 132.608 114.117 L 134.009 110.733 143.755 111.213 C 151.806 111.609 154.386 112.158 158.598 114.372 M 161.553 70.250 C 170.507 76.339 172.269 84.826 166.353 93.363 C 162.576 98.815 156.444 101.775 147.160 102.629 C 143.123 103.000 139.624 103.816 139.384 104.441 C 138.867 105.789 135.000 106.273 135.000 104.989 C 135.000 102.814 140.518 86.829 143.540 80.250 C 145.371 76.263 146.671 73.000 146.427 73.000 C 146.184 73.000 147.187 71.650 148.658 70.000 C 152.158 66.072 155.504 66.137 161.553 70.250 M 56.989 171.487 C 58.965 173.868 57.293 177.778 53.117 180.541 C 47.969 183.948 44.054 184.216 42.918 181.238 C 42.199 179.353 42.771 178.231 46.357 174.488 C 50.899 169.747 54.663 168.685 56.989 171.487 M 99.000 172.862 C 99.000 175.824 94.533 182.271 92.124 182.785 C 88.510 183.557 86.627 177.392 89.373 173.777 C 90.798 171.899 94.481 170.164 97.250 170.063 C 98.524 170.017 99.000 170.779 99.000 172.862 M 170.800 171.200 C 172.748 173.148 172.193 175.582 169.030 178.968 C 165.371 182.885 161.979 182.794 160.904 178.750 C 160.498 177.224 160.579 176.000 161.086 176.000 C 161.589 176.000 162.000 175.169 162.000 174.153 C 162.000 171.009 168.446 168.846 170.800 171.200 M 135.820 173.757 C 136.306 177.179 130.945 182.104 127.057 181.807 C 124.575 181.618 124.000 181.130 124.000 179.210 C 124.000 175.686 129.330 170.790 132.740 171.183 C 134.722 171.411 135.590 172.136 135.820 173.757 M 121.021 183.487 C 119.531 184.408 118.592 183.469 119.513 181.979 C 119.976 181.231 120.568 181.168 121.200 181.800 C 121.832 182.432 121.769 183.024 121.021 183.487 M 157.000 183.059 C 157.000 183.577 156.550 184.000 156.000 184.000 C 155.450 184.000 155.000 183.298 155.000 182.441 C 155.000 181.584 155.450 181.160 156.000 181.500 C 156.550 181.840 157.000 182.541 157.000 183.059 "/></g>
<g fill="#E70014FF" stroke="#E70014FF">
<path d="M 81.500 75.525 C 80.950 75.727 78.524 76.401 76.109 77.023 C 67.408 79.263 57.056 92.074 55.423 102.624 C 54.019 111.698 59.785 122.310 68.000 125.769 C 72.265 127.565 82.408 127.658 86.500 125.938 C 88.150 125.244 89.838 124.750 90.250 124.839 C 90.663 124.927 91.000 124.550 91.000 124.000 C 91.000 123.450 91.623 123.000 92.384 123.000 C 93.145 123.000 95.369 121.227 97.327 119.060 C 101.258 114.709 102.845 109.150 101.192 105.523 C 100.280 103.521 100.437 103.117 102.317 102.613 C 103.517 102.291 105.477 102.021 106.671 102.014 C 108.264 102.004 109.016 101.203 109.500 99.000 C 111.274 90.922 104.525 79.051 96.402 75.963 C 93.996 75.048 83.628 74.744 81.500 75.525 M 83.080 87.000 C 83.729 90.300 84.636 93.000 85.095 93.000 C 85.555 93.000 88.084 91.650 90.715 90.001 C 95.957 86.714 96.203 87.134 92.486 93.022 C 91.119 95.188 90.000 97.189 90.000 97.468 C 90.000 97.748 91.800 98.264 94.000 98.616 C 99.851 99.552 98.958 101.020 91.561 102.625 C 90.494 102.856 89.436 103.230 89.210 103.457 C 88.759 103.907 93.874 111.051 95.494 112.235 C 97.371 113.606 94.113 113.035 89.022 111.100 L 84.023 109.201 83.042 112.850 C 82.502 114.858 81.922 117.400 81.751 118.500 C 81.581 119.600 81.040 121.145 80.549 121.933 C 79.831 123.085 79.623 122.988 79.486 121.433 C 79.083 116.849 77.771 111.000 77.144 111.000 C 76.383 111.000 68.778 115.987 68.000 116.997 C 67.725 117.354 66.719 117.934 65.765 118.286 C 64.237 118.849 64.177 118.661 65.265 116.713 C 65.944 115.496 66.747 114.275 67.048 114.000 C 67.350 113.725 68.618 112.038 69.866 110.250 L 72.136 107.000 64.818 106.977 L 57.500 106.955 63.500 103.720 C 66.800 101.940 69.939 100.409 70.475 100.317 C 72.514 99.967 71.895 98.342 68.508 95.146 C 64.529 91.393 63.883 89.332 67.250 91.134 C 68.488 91.796 69.604 92.281 69.732 92.212 C 69.859 92.143 71.532 92.742 73.450 93.543 C 75.367 94.345 77.138 95.000 77.386 95.000 C 77.634 95.000 78.648 91.850 79.640 88.000 C 80.632 84.150 81.546 81.000 81.671 81.000 C 81.797 81.000 82.431 83.700 83.080 87.000 "/></g>
<g fill="#1D208BFF" stroke="#1D208BFF">
<path d="M 202.000 46.756 C 199.535 47.567 195.228 52.036 193.958 55.101 C 191.413 61.245 195.736 69.768 202.536 72.012 C 211.848 75.085 221.415 66.354 219.561 56.474 C 218.906 52.980 213.494 46.577 211.985 47.509 C 211.519 47.797 210.883 47.620 210.572 47.116 C 209.974 46.149 204.540 45.921 202.000 46.756 "/></g>
<g fill="#1D208BFF" stroke="#1D208BFF">
<path d="M 97.000 119.888 L 95.500 121.563 97.000 119.888 L 98.500 118.212 97.000 119.888 "/></g>
<g fill="#1D208BFF" stroke="#1D208BFF">
<path d="M 65.378 83.378 L 64.500 84.256 65.378 83.378 L 66.256 82.500 65.378 83.378 "/></g>
</svg>
